<?xml version="1.0" encoding="utf-8"?>
<!-- Generator: Adobe Illustrator 16.0.0, SVG Export Plug-In . SVG Version: 6.00 Build 0)  -->
<!DOCTYPE svg PUBLIC "-//W3C//DTD SVG 1.1//EN" "http://www.w3.org/Graphics/SVG/1.1/DTD/svg11.dtd">
<svg version="1.1" id="Layer_1" xmlns="http://www.w3.org/2000/svg" xmlns:xlink="http://www.w3.org/1999/xlink" x="0px" y="0px"
	 width="128px" height="128px" viewBox="0 0 128 128" enable-background="new 0 0 128 128" xml:space="preserve">
<g>
	<path fill="#FFFFFF" d="M81.85,107.08c0.147,0.54-0.193,1.021-0.752,1.068l-1.541,0.133c-0.561,0.041-1.39,0.08-1.843,0.08
		c-0.446,0-0.92,0.3-1.04,0.674c-0.128,0.365-0.688,0.677-1.25,0.688l-5.561,0.118c-0.563,0.009-1.484,0.056-2.04,0.108
		c0,0-2.563,0.21-3.011-0.542c-0.449-0.75-0.449-0.75-0.449-0.75c-0.403-0.323-1.188-0.491-1.736-0.366c0,0-0.946,0.221-1.545,0.221
		c-0.596,0-2.233-0.587-2.979-1.041c-0.747-0.449-1.614-2.08-1.614-2.08c-0.264-0.5-0.453-1.365-0.417-1.922l0.467-7.66
		c0.041-0.562,0.123-1.478,0.185-2.035l0.667-5.725c0.063-0.563-0.122-0.982-0.409-0.945c-0.289,0.047-0.854,0.073-1.269,0.073
		s-0.88-0.334-1.044-0.741c-0.163-0.41-0.756-0.822-1.305-0.925l-5.746-0.997c-0.55-0.095-1.229-0.57-1.508-1.059l-1.085-1.944
		c-0.277-0.493-0.044-0.866,0.522-0.852l7.65,0.356c0.563,0.025,0.788-0.188,0.493-0.476c-0.279-0.29-0.347-0.687-0.142-0.896
		c0.208-0.197,0.128-0.752-0.181-1.226l-0.53-0.821c-0.301-0.477-0.751-1.272-0.998-1.774l-4.19-8.757
		c-0.237-0.502-0.602-1.352-0.792-1.881l-1.533-4.194c-0.19-0.535-0.451-1.41-0.582-1.96l-0.887-3.827
		c-0.122-0.539-0.225-1.449-0.225-2.009v-2.288c0-0.564,0.03-1.48,0.063-2.04c0,0,0.088-1.515,0.681-2.114
		c0.595-0.595,1.994-2.855,1.994-2.855c0.296-0.48,0.817-1.239,1.153-1.69c0,0,1.623-2.158,2.075-2.466
		c0.44-0.299,0.78-1.547,0.78-1.547c0.143-0.54,0.269-1.442,0.269-2.009v-3.778c0-0.562-0.244-1.088-0.528-1.17
		c-0.294-0.085-0.726-0.416-0.974-0.745c-0.247-0.322-0.514-1.032-0.598-1.568c-0.076-0.528-0.48-0.969-0.893-0.969
		c-0.406,0-0.816,0.136-0.891,0.299c-0.079,0.165-0.216,0.542-0.301,0.825c-0.076,0.281-0.214,0.977-0.293,1.531
		c0,0-0.012,0.038,0.145,0.627c0.15,0.598,0.15,0.598,0.15,0.598c0.085,0.492-0.157,0.724-0.528,0.521
		c-0.364-0.21-0.801-0.811-0.974-1.345l-0.129-0.437c-0.17-0.536-0.293-1.435-0.276-1.995l0.085-2.725
		c0.026-0.572,0.275-1.416,0.572-1.897l0.123-0.196c0.289-0.482,0.906-1.135,1.37-1.456l0.261-0.176
		c0.458-0.322,1.215-0.852,1.676-1.164l0.706-0.48c0.467-0.316,1.2-0.868,1.631-1.227l0.059-0.052
		c0.433-0.356,1.248-0.69,1.805-0.754l3.342-0.369c0.56-0.065,1.474-0.078,2.03-0.024l2.742,0.26
		c0.557,0.048,1.468,0.162,2.03,0.243l1.851,0.287c0.556,0.089,1.442,0.333,1.964,0.539l4.374,1.775
		c0.521,0.2,1.406,0.378,1.966,0.378h1.979c0.56,0,1.479-0.028,2.042-0.057l3.042-0.179c0.556-0.036,1.478-0.084,2.032-0.102
		l1.537-0.069c0.564-0.017,0.754,0.33,0.424,0.785l-0.438,0.592c-0.333,0.452-0.967,1.099-1.418,1.432l-0.754,0.569
		c-0.45,0.331-1.245,0.771-1.771,0.981c0,0-1.729,0.676-2.18,0.676c-0.447,0-3.429,0.297-3.884,0.297
		c-0.438,0-1.808,0.082-1.808,0.082c-0.561,0.04-1.48,0.063-2.045,0.063h-0.789c-0.559,0-0.651,0.275-0.19,0.602l1.024,0.741
		c0.46,0.336,1,0.938,1.205,1.346c0.201,0.408,0.438,1.199,0.51,1.758l0.167,1.254c0.079,0.564,0.142,1.477,0.142,2.036v1.982
		c0,0.561,0.264,1.391,0.588,1.854l1.362,1.916c0.32,0.465,0.965,1.109,1.408,1.437c0,0,1.418,1.039,1.712,1.487
		c0.3,0.45,2.27,3.469,2.27,3.469c0.313,0.475,0.676,1.304,0.817,1.843l0.539,2.051c0.14,0.544,0.319,1.447,0.399,2.001
		c0,0,0.302,2.124,0.302,3.015c0,0.9,0,4.333,0,5.079c0,0.74-0.302,8.052-0.444,8.5c-0.156,0.444-1,4.81-1,4.81
		c-0.105,0.554-0.295,1.452-0.413,2.003l-1.062,4.863c-0.118,0.547,0.229,1.092,0.783,1.213l3.674,0.77
		c0.548,0.114,0.998,0.676,0.998,1.235v1.382c0,0.565-0.453,1.111-1.002,1.211l-5.301,0.975c-0.559,0.104-0.885,0.631-0.742,1.171
		L81.85,107.08z"/>
	<rect fill="none" width="128" height="128"/>
</g>
</svg>
