<?xml version="1.0" encoding="utf-8"?>
<!-- Generator: Adobe Illustrator 16.0.0, SVG Export Plug-In . SVG Version: 6.00 Build 0)  -->
<!DOCTYPE svg PUBLIC "-//W3C//DTD SVG 1.1//EN" "http://www.w3.org/Graphics/SVG/1.1/DTD/svg11.dtd">
<svg version="1.1" id="Layer_1" xmlns="http://www.w3.org/2000/svg" xmlns:xlink="http://www.w3.org/1999/xlink" x="0px" y="0px"
	 width="128px" height="128px" viewBox="0 0 128 128" enable-background="new 0 0 128 128" xml:space="preserve">
<g>
	<path fill="#FFFFFF" d="M40.47,83.581c0.073-0.824,0.375-2.126,0.653-2.892l0.682-1.809c0.282-0.768,0.85-1.982,1.258-2.705l2.369-4.21
		c0.407-0.7,1.132-1.835,1.611-2.508l1.298-1.796c0.499-0.665,1.369-1.688,1.951-2.271l1.535-1.527
		c0.577-0.59,1.585-1.482,2.242-1.979l2.334-1.813c0.654-0.497,1.811-1.163,2.581-1.452l1.229-0.46
		c0.771-0.305,2.065-0.686,2.863-0.854l1.582-0.332c0.813-0.183,2.117-0.461,2.917-0.634l2.364-0.518
		c0.812-0.162,1.879-0.843,2.369-1.515l0.307-0.387c0.492-0.663,1.314-1.72,1.839-2.362l0.125-0.17
		c0.532-0.635,1.483-1.567,2.139-2.065l0.89-0.672c0.649-0.507,1.4-1.303,1.672-1.781c0.25-0.47,0.449-1.203,0.42-1.637
		c-0.012-0.417-0.367-1.255-0.766-1.868c-0.396-0.601-0.804-1.764-0.899-2.593l-0.032-0.287c-0.093-0.821-0.479-2.077-0.863-2.806
		l-0.346-0.708c-0.385-0.729-0.771-1.8-0.883-2.375c-0.104-0.587-0.154-1.558-0.1-2.162c0.06-0.623,0.285-1.367,0.528-1.688
		c0.24-0.313,0.707-0.604,1.013-0.616c0.308-0.024,0.965,0.122,1.441,0.332c0.486,0.22,1.426,0.768,2.104,1.221l1.927,1.303
		c0.685,0.454,1.806,0.839,2.507,0.839c0.672,0,1.775-0.189,2.438-0.438c0.648-0.239,1.615-0.517,2.151-0.623
		c0.526-0.109,1.003-0.49,1.058-0.857c0.053-0.367,0.385-1.289,0.74-2.022l0.047-0.094c0.355-0.739,0.949-1.715,1.317-2.167
		c0.372-0.446,0.868-1.045,1.118-1.332c0.224-0.293,0.594-0.554,0.805-0.58c0.217-0.023,0.611,0.126,0.861,0.341
		c0.263,0.207,0.555,1.039,0.63,1.862l0.379,3.842c0.09,0.816,0.222,2.152,0.315,2.97l0.039,0.302
		c0.099,0.816,0.407,1.909,0.701,2.438c0.282,0.526,0.635,1.419,0.771,1.975c0.132,0.556,0.188,1.675,0.128,2.496L98.764,42.7
		c-0.061,0.81-0.266,1.842-0.445,2.256c-0.191,0.422-0.469,1.095-0.627,1.47c-0.162,0.413-0.34,1.396-0.418,2.229l-0.316,4.118
		c-0.066,0.821-0.25,2.15-0.408,2.959l-0.291,1.477c-0.166,0.809-0.342,2.141-0.402,2.966l-0.354,4.884
		c-0.06,0.818-0.472,1.969-0.927,2.539c-0.452,0.584-1.235,1.577-1.747,2.229l-0.831,1.021c-0.5,0.641-1.208,1.701-1.547,2.368
		c-0.338,0.654-0.814,1.737-1.063,2.399c-0.223,0.66-0.492,1.652-0.566,2.199c-0.084,0.562-0.146,1.686-0.146,2.509v1.03
		c0,0.84,0.201,2.104,0.433,2.848c0.248,0.748,0.459,2.013,0.48,2.837l0.102,3.25c0.023,0.813,0.234,2.017,0.476,2.646
		c0.247,0.645,0.571,1.328,0.721,1.537c0.16,0.215,0.831,0.438,1.491,0.483c0.65,0.042,1.406,0.239,1.666,0.421
		c0.277,0.191,0.628,0.645,0.824,1.005c0.186,0.379,0.269,0.959,0.188,1.306c-0.078,0.344-0.326,0.842-0.57,1.107
		c-0.232,0.264-1.106,0.469-1.924,0.448L89.779,99.2c-0.809-0.023-1.729-0.282-2.01-0.609c-0.293-0.317-0.853-1.174-1.235-1.896
		l-0.138-0.235c-0.377-0.728-1.018-1.912-1.405-2.637c0,0-0.921-1.661-1.113-2.041c-0.188-0.392-0.392-0.786-0.392-0.786
		c-0.363-0.727-0.652-0.656-0.617,0.175l0.1,2.761c0.021,0.821,0.195,1.889,0.373,2.361c0.193,0.471,0.581,0.887,0.863,0.914
		c0.29,0.023,0.793,0.21,1.115,0.426c0.313,0.205,0.746,0.573,0.959,0.813c0.201,0.238,0.375,0.916,0.375,1.492
		c0,0.58-0.223,1.238-0.521,1.496c-0.298,0.226-1.092,0.424-1.771,0.424c-0.689,0-1.928-0.024-2.735-0.049
		c-0.813-0.021-1.929-0.5-2.455-1.059c-0.522-0.555-1.075-1.668-1.235-2.473l-0.108-0.617c-0.167-0.797-0.581-2.07-0.94-2.811
		l-0.8-1.621c-0.353-0.744-0.789-2.006-0.944-2.819l-0.479-2.447c-0.163-0.798-0.796-1.022-1.409-0.481l-0.634,0.537
		c-0.607,0.543-1.604,1.457-2.166,2.031l-0.479,0.48C69.386,91.12,68.74,92,68.527,92.507c-0.213,0.495-0.473,1.183-0.584,1.526
		c-0.096,0.344,0.494,0.668,1.303,0.738l3.452,0.25c0.823,0.061,1.798,0.235,2.157,0.353c0.367,0.138,0.899,0.425,1.196,0.626
		c0.289,0.221,0.622,0.736,0.728,1.15c0.105,0.428,0.08,1.022-0.047,1.342c-0.143,0.324-0.474,0.672-0.73,0.773
		c-0.253,0.104-1.148,0.219-1.967,0.241l-4.973,0.181c-0.824,0.03-1.521,0.283-1.552,0.584c-0.028,0.289-0.219,0.762-0.42,1.059
		c-0.229,0.293-0.93,0.563-1.598,0.623c-0.658,0.053-1.865,0.059-2.686,0.018l-5.545-0.324c-0.83-0.035-2.178-0.096-2.993-0.11
		l-8.629-0.209c-0.818-0.022-1.706-0.228-1.966-0.425c-0.264-0.223-1.143-0.373-1.976-0.346l-9.775,0.297
		c-0.827,0.024-2.166,0.056-2.98,0.08c-1.795,0.033-14.461,1.291-11.294-3.461c1.21-1.813,4.29-1.174,6.028-1.252
		c0.322-0.014,7.65-0.344,7.65-0.344c0.835-0.044,2.087-0.193,2.792-0.354c0.719-0.162,1.666-0.506,2.113-0.771
		c0.451-0.258,1.144-0.822,1.531-1.24c0.4-0.422,0.967-1.181,1.253-1.676c0.289-0.504,0.636-1.372,0.762-1.923
		c0.137-0.554,0.299-1.677,0.364-2.498L40.47,83.581z"/>
	<rect fill="none" width="128" height="128"/>
</g>
</svg>
