<?xml version="1.0" encoding="utf-8"?>
<!-- Generator: Adobe Illustrator 16.0.0, SVG Export Plug-In . SVG Version: 6.00 Build 0)  -->
<!DOCTYPE svg PUBLIC "-//W3C//DTD SVG 1.1//EN" "http://www.w3.org/Graphics/SVG/1.1/DTD/svg11.dtd">
<svg version="1.1" id="Layer_1" xmlns="http://www.w3.org/2000/svg" xmlns:xlink="http://www.w3.org/1999/xlink" x="0px" y="0px"
	 width="336px" height="336px" viewBox="0 0 336 336" enable-background="new 0 0 336 336" xml:space="preserve">
<title>checkbox</title>
<desc>Created with Sketch.</desc>
<g>
	<g>
		<path d="M298.667,18.667H37.333c-10.224,0-18.667,8.443-18.667,18.667v261.333c0,10.224,8.443,18.666,18.667,18.666h261.333
			c10.224,0,18.666-8.442,18.666-18.666V37.333C317.333,27.109,308.891,18.667,298.667,18.667z M298.667,0
			C319.2,0,336,16.8,336,37.333v261.333C336,319.2,319.2,336,298.667,336H37.333C16.8,336,0,319.2,0,298.667V37.333
			C0,16.8,16.8,0,37.333,0H298.667z"/>
	</g>
</g>
</svg>
