<?xml version="1.0" encoding="utf-8"?>
<!-- Generator: Adobe Illustrator 16.0.0, SVG Export Plug-In . SVG Version: 6.00 Build 0)  -->
<!DOCTYPE svg PUBLIC "-//W3C//DTD SVG 1.1//EN" "http://www.w3.org/Graphics/SVG/1.1/DTD/svg11.dtd">
<svg version="1.1" id="Layer_1" xmlns="http://www.w3.org/2000/svg" xmlns:xlink="http://www.w3.org/1999/xlink" x="0px" y="0px"
	 width="362.719px" height="377.869px" viewBox="298.378 35.087 362.719 377.869"
	 enable-background="new 298.378 35.087 362.719 377.869" xml:space="preserve">
<g>
	<g>
		<g>
			<path d="M580.013,168.044c0,6.869,0,13.781,0,20.65c0,16.494,0,32.987,0,49.438c0,19.775,0,39.55,0,59.325
				c0,16.976,0,33.906,0,50.882c0,7.962,0.087,15.925,0,23.887c0,1.051-0.088,2.145-0.219,3.194
				c0.219-1.531,0.438-3.106,0.612-4.638c-0.263,1.969-0.787,3.807-1.487,5.644c0.568-1.399,1.181-2.8,1.75-4.2
				c-0.831,1.969-1.882,3.763-3.15,5.469c0.919-1.181,1.838-2.362,2.757-3.543c-1.182,1.487-2.538,2.844-4.025,4.024
				c1.182-0.919,2.362-1.837,3.544-2.756c-1.706,1.269-3.5,2.318-5.469,3.149c1.399-0.568,2.8-1.181,4.2-1.75
				c-1.838,0.744-3.719,1.226-5.645,1.488c1.531-0.219,3.106-0.438,4.638-0.613c-2.45,0.307-4.943,0.219-7.438,0.219
				c-4.506,0-9.056,0-13.563,0c-15.094,0-30.231,0-45.325,0c-18.462,0-36.925,0-55.387,0c-15.794,0-31.632,0-47.426,0
				c-7.394,0-14.787,0.088-22.181,0c-1.05,0-2.1-0.087-3.194-0.219c1.531,0.219,3.106,0.438,4.637,0.613
				c-1.969-0.263-3.806-0.788-5.644-1.488c1.4,0.569,2.8,1.182,4.2,1.75c-1.969-0.831-3.763-1.881-5.469-3.149
				c1.181,0.919,2.362,1.837,3.543,2.756c-1.487-1.181-2.844-2.537-4.025-4.024c0.919,1.181,1.837,2.362,2.756,3.543
				c-1.269-1.706-2.319-3.5-3.15-5.469c0.568,1.4,1.181,2.801,1.75,4.2c-0.744-1.837-1.225-3.719-1.488-5.644
				c0.219,1.531,0.438,3.106,0.613,4.638c-0.307-2.581-0.219-5.206-0.219-7.831c0-4.813,0-9.669,0-14.481
				c0-16.231,0-32.507,0-48.737c0-19.775,0-39.55,0-59.282c0-17.15,0-34.344,0-51.494c0-8.4,0.131-16.8,0-25.2
				c0-0.131,0-0.219,0-0.35c0-9.144-8.05-17.938-17.5-17.5c-9.494,0.438-17.5,7.7-17.5,17.5c0,4.244,0,8.487,0,12.731
				c0,10.85,0,21.744,0,32.594c0,14.525,0,29.05,0,43.575c0,15.356,0,30.668,0,46.025c0,13.344,0,26.688,0,40.031
				c0,8.356,0,16.713,0,25.068c0,1.444,0,2.888,0,4.288c0.131,14.306,7.744,27.868,20.168,35.087
				c9.275,5.426,18.988,5.513,29.138,5.513c10.238,0,20.519,0,30.756,0c14.438,0,28.875,0,43.313,0c15.313,0,30.669,0,45.981,0
				c12.688,0,25.418,0,38.105,0c6.781,0,13.563,0,20.344,0c7.744,0,15.619-1.75,22.226-5.95
				c11.987-7.568,19.294-20.475,19.425-34.693c0.044-4.943,0-9.888,0-14.831c0-11.244,0-22.487,0-33.775c0-14.787,0-29.531,0-44.318
				c0-15.269,0-30.538,0-45.807c0-12.994,0-25.943,0-38.938c0-7.831,0-15.662,0-23.494c0-1.05,0-2.1,0-3.15
				c0-9.144-8.05-17.938-17.5-17.5C588.019,150.981,580.013,158.244,580.013,168.044L580.013,168.044z"/>
		</g>
	</g>
	<g>
		<g>
			<path d="M643.625,91c-8.313,0-16.669,0-24.981,0c-15.356,0-30.669,0-46.024,0c-8.138,0-16.275,0-24.413,0
				c-6.519,0-13.037,0-19.556,0c-14.351,0-28.656,0-43.007,0c-15.181,0-30.362,0-45.587,0c-8.882,0-17.763,0-26.645,0
				c-5.556,0-11.068,0-16.625,0c-15.05,0-30.056,0-45.106,0c-11.331,0-22.619,0-33.95,0c-0.613,0-1.225,0-1.838,0
				c-9.144,0-17.938,8.05-17.5,17.5c0.438,9.494,7.7,17.5,17.5,17.5c8.313,0,16.625,0,24.938,0c15.4,0,30.756,0,46.156,0
				c8.4,0,16.757,0,25.156,0c6.3,0,12.601,0,18.944,0c14.262,0,28.48,0,42.743,0c15.226,0,30.494,0,45.719,0
				c9.057,0,18.112,0,27.169,0c5.381,0,10.807,0,16.188,0c14.963,0,29.925,0,44.844,0c11.331,0,22.662,0,33.994,0
				c0.612,0,1.225,0,1.837,0c9.144,0,17.938-8.05,17.5-17.5C660.688,99.006,653.425,91,643.625,91L643.625,91z"/>
		</g>
	</g>
	<g>
		<g>
			<path d="M428.813,108.5c0-12.731,0-25.462,0-38.194c0-2.012-0.088-4.069,0.088-6.081c-0.219,1.531-0.438,3.106-0.613,4.637
				c0.132-1.006,0.395-1.925,0.744-2.844c-0.568,1.4-1.182,2.8-1.75,4.2c0.481-1.094,1.05-2.1,1.794-3.063
				c-0.919,1.181-1.838,2.362-2.757,3.544c0.788-0.963,1.619-1.794,2.538-2.538c-1.182,0.918-2.362,1.837-3.544,2.756
				c1.138-0.875,2.362-1.575,3.675-2.144c-1.399,0.569-2.8,1.181-4.2,1.75c1.138-0.438,2.319-0.744,3.544-0.962
				c-1.531,0.219-3.106,0.438-4.638,0.612c4.025-0.481,8.226-0.131,12.25-0.131c8.838,0,17.676,0,26.469,0
				c20.082,0,40.207,0,60.288,0c4.899,0,10.019-0.438,14.875,0.131c-1.531-0.219-3.106-0.438-4.638-0.612
				c0.919,0.175,1.838,0.394,2.713,0.744c-1.4-0.569-2.801-1.181-4.2-1.75c1.006,0.438,1.925,0.962,2.8,1.663
				c-1.182-0.919-2.362-1.837-3.544-2.756c0.7,0.569,1.313,1.225,1.925,1.925c-0.918-1.182-1.837-2.363-2.756-3.544
				c0.656,0.875,1.225,1.837,1.706,2.844c-0.568-1.4-1.181-2.8-1.75-4.2c0.525,1.269,0.831,2.494,1.05,3.85
				c-0.219-1.531-0.438-3.106-0.612-4.637c0.525,5.119,0.088,10.456,0.088,15.619c0,7.875,0,15.75,0,23.625c0,1.881,0,3.762,0,5.644
				c0,9.144,8.05,17.938,17.5,17.5c9.493-0.438,17.5-7.7,17.5-17.5c0-14.35,0.263-28.744,0-43.094
				c-0.219-13.431-9.188-27.212-23.101-29.663c-3.019-0.525-5.818-0.744-8.793-0.744c-6.344,0-12.688,0-19.031,0
				c-20.257,0-40.557,0-60.813,0c-7.525,0-15.094,0-22.619,0c-1.662,0-3.325,0-5.031,0c-8.662,0.044-17.675,3.5-23.625,9.975
				c-5.25,5.731-8.269,12.644-8.487,20.431c0,0.656,0,1.313,0,1.925c0,3.981,0,7.918,0,11.9c0,9.188,0,18.331,0,27.519
				c0,0.569,0,1.181,0,1.75c0,9.144,8.05,17.938,17.5,17.5C420.807,125.563,428.813,118.3,428.813,108.5L428.813,108.5z"/>
		</g>
	</g>
	<g>
		<g>
			<path d="M424.263,168.044c0,5.25,0,10.5,0,15.706c0,12.6,0,25.156,0,37.756c0,15.225,0,30.45,0,45.675
				c0,13.169,0,26.337,0,39.506c0,6.388-0.132,12.775,0,19.162c0,0.088,0,0.176,0,0.263c0,9.144,8.05,17.938,17.5,17.5
				c9.493-0.438,17.5-7.7,17.5-17.5c0-5.25,0-10.5,0-15.706c0-12.6,0-25.156,0-37.756c0-15.225,0-30.45,0-45.675
				c0-13.169,0-26.337,0-39.506c0-6.388,0.131-12.775,0-19.163c0-0.087,0-0.175,0-0.262c0-9.144-8.05-17.938-17.5-17.5
				C432.269,150.981,424.263,158.244,424.263,168.044L424.263,168.044z"/>
		</g>
	</g>
	<g>
		<g>
			<path d="M501.219,168.044c0,5.25,0,10.5,0,15.706c0,12.6,0,25.156,0,37.756c0,15.225,0,30.45,0,45.675
				c0,13.169,0,26.337,0,39.506c0,6.388-0.131,12.775,0,19.162c0,0.088,0,0.176,0,0.263c0,9.144,8.05,17.938,17.5,17.5
				c9.494-0.438,17.5-7.7,17.5-17.5c0-5.25,0-10.5,0-15.706c0-12.6,0-25.156,0-37.756c0-15.225,0-30.45,0-45.675
				c0-13.169,0-26.337,0-39.506c0-6.388,0.131-12.775,0-19.163c0-0.087,0-0.175,0-0.262c0-9.144-8.05-17.938-17.5-17.5
				C509.225,150.981,501.219,158.244,501.219,168.044L501.219,168.044z"/>
		</g>
	</g>
</g>
</svg>
