<?xml version="1.0" encoding="utf-8"?>
<!-- Generator: Adobe Illustrator 16.0.0, SVG Export Plug-In . SVG Version: 6.00 Build 0)  -->
<!DOCTYPE svg PUBLIC "-//W3C//DTD SVG 1.1//EN" "http://www.w3.org/Graphics/SVG/1.1/DTD/svg11.dtd">
<svg version="1.1" id="Layer_1" xmlns="http://www.w3.org/2000/svg" xmlns:xlink="http://www.w3.org/1999/xlink" x="0px" y="0px"
	 width="128px" height="128px" viewBox="0 0 128 128" enable-background="new 0 0 128 128" xml:space="preserve">
<g>
	<path fill="#FFFFFF" d="M34.781,43.537c0.393-0.218,1.061-0.517,1.479-0.673l2.643-0.955c0.416-0.162,1.139-0.329,1.57-0.387l1.112-0.12
		c0.437-0.06,1.18-0.096,1.628-0.111l10.482-0.061c0.445-0.007,1.174,0.034,1.623,0.079l7.684,0.866
		c0.45,0.044,1.184,0.084,1.635,0.084h4.532c0.457,0,1.187-0.049,1.633-0.111l0.146-0.019c0.444-0.06,1.12-0.294,1.507-0.524
		l1.411-0.842c0.375-0.237,1.054-0.516,1.491-0.625h0.017c0.438-0.112,1.138-0.329,1.56-0.492l1.851-0.702
		c0.42-0.164,1.098-0.425,1.521-0.581l1.199-0.462c0.423-0.164,1.014-0.563,1.316-0.896l0.66-0.717
		c0.304-0.334,0.771-0.896,1.035-1.253l1.993-2.634c0.275-0.356,0.728-0.931,1.009-1.282l2.019-2.497
		c0.282-0.344,0.672-0.969,0.86-1.375l0.508-1.088c0.188-0.413,0.602-1.011,0.912-1.324l0.475-0.513
		c0.318-0.329,0.883-0.783,1.262-1.021l1.096-0.671c0.389-0.231,1.047-0.518,1.486-0.636l1.711-0.456
		c0.437-0.119,1.158-0.214,1.607-0.214h0.852c0.448,0,1.18,0.049,1.637,0.116l0.065,0.007c0.437,0.063,1.142,0.258,1.556,0.436
		l0.582,0.247c0.418,0.167,0.971,0.529,1.24,0.797c0.254,0.265,0.696,0.775,0.951,1.132l0.467,0.623
		c0.278,0.36,0.861,0.665,1.313,0.687l2.702,0.089c0.449,0.023,1.188,0.053,1.63,0.075l0.218,0.002
		c0.445,0.024,1.139,0.103,1.529,0.152c0.396,0.068,0.834,0.269,0.97,0.443c0.129,0.18,0.254,0.493,0.278,0.684
		c0.027,0.209-0.043,0.718-0.154,1.159l-0.08,0.333c-0.12,0.432-0.288,1.155-0.396,1.593l-0.179,0.82
		c-0.11,0.435-0.395,1.104-0.637,1.479l-0.958,1.52c-0.247,0.381-0.373,1.047-0.29,1.483l0.007,0.086
		c0.09,0.436,0.036,1.128-0.115,1.523c-0.164,0.389-0.561,0.959-0.889,1.266l-0.723,0.669c-0.329,0.298-0.969,0.536-1.411,0.532
		l-2.859-0.05c-0.454-0.007-1.166-0.097-1.585-0.216c-0.42-0.109-1.029-0.386-1.363-0.596c-0.332-0.22-0.897-0.198-1.266,0.061
		l-1.066,0.747c-0.377,0.257-0.916,0.743-1.213,1.086l-1.66,1.898c-0.277,0.342-0.688,0.951-0.888,1.356l-0.573,1.168
		c-0.191,0.407-0.435,1.091-0.549,1.542l-0.502,2.174c-0.101,0.432-0.324,1.144-0.482,1.558l-0.533,1.363
		c-0.152,0.41-0.305,1.13-0.318,1.576l-0.109,4.141c-0.01,0.455-0.108,1.182-0.203,1.619l-0.275,1.21
		c-0.097,0.452-0.404,1.104-0.672,1.452l-0.872,1.186c-0.265,0.35-0.69,0.954-0.938,1.325l-1.592,2.41
		c-0.246,0.383-0.627,1-0.861,1.385l-1.088,1.812c-0.226,0.377-0.461,1.063-0.523,1.51l-0.273,2.156
		c-0.06,0.438-0.047,1.164,0.021,1.604l0.079,0.563c0.06,0.438,0.056,1.172,0,1.615L87.143,79c-0.072,0.434-0.141,1.169-0.148,1.621
		l-0.202,6.791c-0.019,0.454-0.026,1.186-0.038,1.635l-0.061,4.389c-0.002,0.45,0.061,1.188,0.146,1.623l0.173,0.961
		c0.086,0.438,0.424,1.049,0.768,1.338l0.142,0.123c0.331,0.295,0.946,0.672,1.369,0.82c0.426,0.156,0.948,0.611,1.175,0.989
		l0.07,0.106c0.22,0.395,0.398,0.979,0.398,1.309c0,0.338-0.145,0.789-0.318,1.004c-0.168,0.223-0.192,0.618-0.033,0.88
		c0.148,0.267,0.279,0.754,0.279,1.082c0,0.337-0.176,0.856-0.404,1.173c-0.219,0.305-0.755,0.59-1.217,0.616l-3.822,0.276
		c-0.453,0.039-0.76-0.299-0.712-0.742c0,0,0.062-0.391-0.421-0.712c-0.489-0.326-0.902-0.677-0.902-0.677
		c-0.343-0.297-0.625-0.904-0.625-1.354v-0.843c0-0.45-0.02-1.186-0.039-1.637l-0.076-1.744c-0.026-0.439-0.119-1.082-0.209-1.407
		c-0.082-0.338-0.516-0.675-0.955-0.765c0,0,0,0-0.16-0.412c-0.164-0.391-0.164-0.391-0.164-0.391
		c-0.043-0.222-0.029-0.646,0.041-0.928c0.061-0.279,0.123-0.882,0.133-1.333l0.061-6.063c0-0.453-0.049-1.192-0.105-1.638
		c0,0-1.01-7.294-1.01-7.53c0-0.24-0.568-3.207-0.568-3.207c-0.086-0.44-0.305-1.14-0.486-1.551l-0.373-0.832
		c-0.186-0.414-0.701-0.728-1.152-0.68l-3.348,0.266c-0.441,0.035-1.17,0-1.615-0.084l-3.207-0.58
		c-0.435-0.076-1.16-0.242-1.586-0.367l-4.604-1.262c-0.432-0.117-1.144-0.291-1.579-0.404l-6.834-1.69
		c-0.444-0.108-1.152-0.306-1.587-0.429l-3.88-1.135c-0.434-0.136-1.162-0.231-1.599-0.231h-0.219c-0.445,0-0.825,0.362-0.84,0.813
		l-0.027,0.688c-0.018,0.451-0.152,0.869-0.304,0.935c-0.155,0.069-0.64,0.045-1.085-0.045l-2.091-0.455
		c-0.442-0.101-0.895,0.18-1.002,0.621l-0.476,1.775c-0.115,0.436-0.327,1.137-0.479,1.563l-1.129,3.119
		c-0.147,0.411-0.483,1.063-0.732,1.442l-1.979,2.978c-0.254,0.371-0.636,0.998-0.868,1.385l-1.742,2.994
		c-0.226,0.381-0.598,1.023-0.829,1.412l-1.653,2.771c-0.229,0.388-0.561,1.037-0.732,1.457l-0.579,1.376
		c-0.168,0.412-0.357,1.134-0.411,1.565l-0.113,1.027c-0.063,0.445-0.095,1.178-0.09,1.625l0.047,1.896
		c0.011,0.445,0.138,0.961,0.301,1.144c0.156,0.175,0.303,0.44,0.318,0.603c0.018,0.154,0.039,0.649,0.039,1.097v0.048
		c0,0.445,0.068,1.132,0.161,1.537c0.078,0.395,0.337,0.836,0.56,0.966c0.223,0.129,0.748,0.362,1.172,0.507l0.056,0.024
		c0.434,0.146,1.009,0.467,1.303,0.708c0.286,0.238,0.734,0.652,0.997,0.922c0.266,0.268,0.537,0.734,0.609,1.044
		c0.068,0.312-0.193,0.765-0.553,1.021l-0.34,0.217c-0.367,0.252-1.039,0.457-1.495,0.466l-2.938,0.051
		c-0.445,0.006-1.019-0.241-1.256-0.546c-0.248-0.311-0.661-0.814-0.924-1.122c-0.271-0.317-0.565-0.926-0.658-1.354
		c0,0-0.148-0.646-0.148-0.975c0-0.32,0-1.831,0-1.831c0-0.45-0.353-0.89-0.799-0.97l-1.363-0.26c-0.441-0.086-1-0.467-1.236-0.842
		l-0.175-0.295c-0.245-0.386-0.447-1.06-0.462-1.513l-0.111-5.112c-0.014-0.44-0.167-1.139-0.343-1.537
		c-0.173-0.396-0.313-1.08-0.313-1.532v-1.249c0-0.457-0.122-1.096-0.239-1.432c-0.145-0.324-0.214-0.793-0.165-1.035
		c0.035-0.248,0.325-0.722,0.626-1.058l0.987-1.104c0.305-0.336,0.742-0.916,0.984-1.299l0.804-1.271
		c0.243-0.382,0.637-0.997,0.87-1.382l0.997-1.647c0.234-0.39,0.567-1.039,0.745-1.455l0.313-0.744
		c0.182-0.422,0.354-1.117,0.372-1.563l0.08-1.661c0.015-0.449,0-1.188-0.055-1.632c0,0-0.473-4.324-0.473-4.563
		c0-0.238-0.599-2.583-0.599-2.583c-0.11-0.423-0.37-1.12-0.569-1.519l-0.384-0.78c-0.21-0.399-0.473-1.085-0.588-1.524L26.5,58.849
		c-0.121-0.437-0.247-0.417-0.282,0.025l-0.355,4.229c-0.027,0.459-0.193,1.162-0.364,1.579l-0.602,1.53
		c-0.168,0.42-0.501,1.065-0.746,1.445l-1.108,1.667c-0.25,0.383-0.759,0.895-1.144,1.145l-1.435,0.951
		c-0.379,0.245-1.049,0.416-1.502,0.396l-1.331-0.065c-0.451-0.028-1.119-0.248-1.501-0.485l-1.119-0.728
		c-0.368-0.235-0.887-0.747-1.133-1.113l-0.375-0.563c-0.252-0.377-0.509-0.896-0.574-1.15c-0.07-0.266-0.182-0.67-0.25-0.922
		c-0.056-0.249-0.112-0.827-0.112-1.27v-0.373c0-0.449,0.057-1.096,0.112-1.428c0.068-0.331,0.256-0.604,0.396-0.604
		c0.158,0,0.425,0.22,0.574,0.482c0.155,0.275,0.346,0.858,0.432,1.296l0.104,0.555c0.078,0.438,0.325,1.125,0.544,1.521
		l0.007,0.017c0.22,0.387,0.543,0.949,0.714,1.235c0.177,0.286,0.669,0.642,1.086,0.782l0.073,0.023
		c0.424,0.146,1.046,0.232,1.37,0.188c0.333-0.043,0.925-0.259,1.324-0.475l0.005-0.01c0.396-0.219,0.919-0.703,1.169-1.07
		l0.377-0.568c0.253-0.381,0.57-1.027,0.714-1.457l0.515-1.502c0.15-0.427,0.283-1.14,0.307-1.584l0.257-5.75
		c0.007-0.448,0.085-1.181,0.166-1.627l0.279-1.521c0.075-0.433,0.319-1.123,0.529-1.52l0.182-0.325
		c0.219-0.398,0.611-1.006,0.906-1.35l0.258-0.343c0.282-0.342,0.818-0.833,1.191-1.078l0.813-0.548
		c0.368-0.252,0.994-0.629,1.384-0.852l0.748-0.405c0.395-0.21,0.994-0.614,1.355-0.892l1.203-0.934
		c0.349-0.273,0.954-0.673,1.353-0.887L34.781,43.537z"/>
	<rect fill="none" width="128" height="128"/>
</g>
</svg>
