<?xml version="1.0" encoding="utf-8"?>
<!-- Generator: Adobe Illustrator 16.0.0, SVG Export Plug-In . SVG Version: 6.00 Build 0)  -->
<!DOCTYPE svg PUBLIC "-//W3C//DTD SVG 1.1//EN" "http://www.w3.org/Graphics/SVG/1.1/DTD/svg11.dtd">
<svg version="1.1" id="Layer_1" xmlns="http://www.w3.org/2000/svg" xmlns:xlink="http://www.w3.org/1999/xlink" x="0px" y="0px"
	 width="367.36px" height="262.617px" viewBox="296.32 92.691 367.36 262.617"
	 enable-background="new 296.32 92.691 367.36 262.617" xml:space="preserve">
<title>ALL</title>
<path d="M659.2,355.309H300.8c-2.474,0-4.48-2.006-4.48-4.479V97.171c0-2.475,2.006-4.48,4.48-4.48h358.4
	c2.474,0,4.479,2.005,4.479,4.48v253.658C663.68,353.303,661.674,355.309,659.2,355.309z M305.28,346.349h349.44V101.651H305.28
	V346.349z"/>
<path d="M481.12,278.746c-1.176-0.005-2.302-0.472-3.136-1.299l-180.32-177.094c-1.979-1.484-2.381-4.292-0.896-6.272
	c1.484-1.979,4.292-2.381,6.272-0.896c0.339,0.254,0.641,0.556,0.896,0.896L481.12,267.949L656.02,94.08
	c1.756-1.745,4.595-1.734,6.339,0.022c1.744,1.756,1.734,4.595-0.022,6.339L484.48,277.401
	C483.599,278.302,482.379,278.79,481.12,278.746z"/>
<path d="M300.8,355.309c-2.474,0.016-4.492-1.979-4.507-4.453c-0.007-1.226,0.488-2.401,1.371-3.252l129.92-126.292
	c1.77-1.732,4.607-1.702,6.339,0.067c1.732,1.77,1.702,4.607-0.066,6.339L303.936,353.92
	C303.116,354.78,301.988,355.28,300.8,355.309z"/>
<path d="M659.2,355.309c-1.176-0.005-2.302-0.472-3.136-1.299L527.936,227.718c-1.89-1.597-2.128-4.423-0.531-6.313
	s4.424-2.128,6.313-0.532c0.176,0.148,0.34,0.31,0.49,0.483l128.128,126.292c1.757,1.742,1.769,4.578,0.026,6.335
	C661.525,354.827,660.388,355.304,659.2,355.309z"/>
</svg>
