<svg xmlns="http://www.w3.org/2000/svg" data-name="Layer 1" viewBox="0 0 100 125" x="0px" y="0px"><title>ALL</title><path d="M90,79.31H10a1,1,0,0,1-1-1V21.69a1,1,0,0,1,1-1H90a1,1,0,0,1,1,1V78.31A1,1,0,0,1,90,79.31Zm-79-2H89V22.69H11Z"/><path d="M50.25,62.22a1,1,0,0,1-.7-.29L9.3,22.4A1,1,0,1,1,10.7,21L50.25,59.81,89.29,21a1,1,0,1,1,1.41,1.42L51,61.92A1,1,0,0,1,50.25,62.22Z"/><path d="M10,79.31a1,1,0,0,1-.7-1.72l29-28.19a1,1,0,1,1,1.4,1.43L10.7,79A1,1,0,0,1,10,79.31Z"/><path d="M90,79.31a1,1,0,0,1-.7-.29L60.7,50.83a1,1,0,1,1,1.4-1.42L90.7,77.6a1,1,0,0,1-.7,1.71Z"/><text x="0" y="115" fill="#000000" font-size="5px" font-weight="bold" font-family="'Helvetica Neue', Helvetica, Arial-Unicode, Arial, Sans-serif">Created by KΛPKLΛM</text><text x="0" y="120" fill="#000000" font-size="5px" font-weight="bold" font-family="'Helvetica Neue', Helvetica, Arial-Unicode, Arial, Sans-serif">from the Noun Project</text></svg>