<?xml version="1.0" encoding="utf-8"?>
<!-- Generator: Adobe Illustrator 16.0.0, SVG Export Plug-In . SVG Version: 6.00 Build 0)  -->
<!DOCTYPE svg PUBLIC "-//W3C//DTD SVG 1.1//EN" "http://www.w3.org/Graphics/SVG/1.1/DTD/svg11.dtd">
<svg version="1.1" id="Layer_1" xmlns="http://www.w3.org/2000/svg" xmlns:xlink="http://www.w3.org/1999/xlink" x="0px" y="0px"
	 width="43px" height="43px" viewBox="0 0 43 43" enable-background="new 0 0 43 43" xml:space="preserve">
<g>
	<g>
		<path fill="#FFFFFF" d="M37.507,32.68H5.491c-0.655,0-1.191-0.535-1.191-1.191V11.512c0-0.658,0.536-1.191,1.191-1.191h32.016
			c0.657,0,1.191,0.533,1.191,1.191v19.977C38.698,32.145,38.164,32.68,37.507,32.68z M5.649,31.33h31.698V11.671H5.649V31.33z"/>
	</g>
	<g>
		<g>
			<path fill="#FFFFFF" d="M37.507,32.691H5.491c-0.239,0-0.469-0.068-0.666-0.203L4.15,32.029l11.443-11.445l5.904,5.902
				l5.902-5.902l11.449,11.45l-0.687,0.456C37.97,32.623,37.741,32.691,37.507,32.691z M15.597,22.492l-8.878,8.877l29.534-0.025
				l-8.851-8.852l-5.028,5.029c-0.467,0.465-1.285,0.465-1.75,0L15.597,22.492z"/>
		</g>
		<g>
			<path fill="#FFFFFF" d="M21.5,27.84c-0.332,0-0.644-0.129-0.876-0.361L4.153,11.008l0.632-0.466
				c0.206-0.153,0.451-0.233,0.706-0.233h32.016c0.256,0,0.498,0.082,0.706,0.233l0.631,0.466l-16.47,16.471
				C22.142,27.711,21.83,27.84,21.5,27.84z M6.713,11.656L21.5,26.441l14.813-14.813L6.713,11.656z"/>
		</g>
	</g>
</g>
</svg>
