<?xml version="1.0" encoding="utf-8"?>
<!-- Generator: Adobe Illustrator 16.0.0, SVG Export Plug-In . SVG Version: 6.00 Build 0)  -->
<!DOCTYPE svg PUBLIC "-//W3C//DTD SVG 1.1//EN" "http://www.w3.org/Graphics/SVG/1.1/DTD/svg11.dtd">
<svg version="1.1" id="Layer_1" xmlns="http://www.w3.org/2000/svg" xmlns:xlink="http://www.w3.org/1999/xlink" x="0px" y="0px"
	 width="128px" height="128px" viewBox="0 0 128 128" enable-background="new 0 0 128 128" xml:space="preserve">
<g>
	<path fill="#FFFFFF" d="M78.004,98.701c-0.632,0.568-1.135,0.333-1.1-0.52l0.045-1.764c0.023-0.852-0.588-1.256-1.361-0.896l-3.238,1.494
		c-0.783,0.365-1.283-0.031-1.121-0.873l0.888-4.631c0.163-0.838,0.608-2.154,0.991-2.922l0.092-0.17
		c0.367-0.761,1.217-1.85,1.877-2.416l2.074-1.803c0.654-0.566,0.511-0.815-0.313-0.576l-2.041,0.604
		c-0.827,0.242-2.19,0.52-3.032,0.627c0,0-2.158,0.258-2.602,0.258c-0.448,0-2.362-0.157-3.402-0.157
		c-1.025,0-7.068-1.651-7.068-1.651c-0.827-0.234-1.872,0.182-2.323,0.905l-1.02,1.649c-0.442,0.723-1.493,1.141-2.317,0.916
		l-2.029-0.528c-0.825-0.218-2.2-0.396-3.058-0.396c0,0-3.757,0-4.204,0c-0.442,0-6.229-2.129-6.229-2.129
		c-0.803-0.297-2.121-0.785-2.912-1.08l-8.625-3.189c-0.804-0.299-0.875-0.932-0.166-1.414l8.799-5.811
		c0.711-0.479,0.619-1.031-0.217-1.239l-2.298-0.58c-0.828-0.209-2.056,0.065-2.712,0.618l-3.662,3.027
		c-0.657,0.547-1.854,1.25-2.65,1.564c0,0-3.131,1.21-3.868,1.65c-0.744,0.455-4.821,1.092-4.821,1.092
		c-0.843,0.136-2.245,0.203-3.09,0.152L9.669,78.41c-0.853-0.055-1.567-0.797-1.576-1.652L7.98,67.297
		c-0.016-0.861-0.058-2.252-0.114-3.109l-0.255-4.431c-0.055-0.85,0.564-1.784,1.38-2.069l0.454-0.157
		c0.806-0.28,2.175-0.497,3.022-0.469l2.213,0.065c0.857,0.027,2.189,0.369,2.942,0.76l2.115,1.092
		c0.762,0.383,2.072,0.858,2.901,1.037L23,60.09c0.833,0.186,2.219,0.326,3.068,0.297l3.837-0.077
		c0.857-0.016,2.172-0.374,2.913-0.796l4.383-2.459c0.75-0.42,0.67-0.916-0.162-1.091l-1.83-0.386
		c-0.839-0.188-2.173-0.596-2.963-0.92L23,50.823c-0.791-0.328-1.772-1.208-2.181-1.973l-0.59-1.099
		c-0.409-0.754-0.087-1.63,0.711-1.945l2.416-0.929c0.807-0.323,2.134-0.728,2.971-0.905l3.619-0.805
		c0.834-0.178,2.183-0.543,3.005-0.805l3.095-0.979c0.805-0.259,2.18-0.473,3.041-0.473h3.087c0.861,0,2.263,0,3.112,0h2.807
		c0.854,0,2.223-0.21,3.04-0.465l1.756-0.549c0.819-0.251,2.175-0.618,3.005-0.787l3.77-0.829c0.826-0.173,2.211-0.321,3.07-0.321
		H75.59c0.854,0,2.094,0.447,2.749,0.997l0.425,0.354c0.655,0.56,1.682,1.502,2.285,2.104l1.797,1.797
		c0.604,0.604,1.793,1.211,2.639,1.357l2.988,0.509c0.842,0.147,2.207,0.456,3.031,0.671l4.098,1.111
		c0.819,0.225,2.121,0.739,2.879,1.141l3.303,1.779c0.755,0.401,2.007,1.038,2.779,1.411l4.285,2.05
		c0.773,0.381,1.983,1.089,2.676,1.587l3.67,2.624c0.693,0.505,1.762,1.398,2.371,2.004l0.603,0.612
		c0.614,0.599,1.333,1.434,1.629,1.829c0.28,0.415,0.545,1.212,0.59,1.781c0.038,0.569-0.091,1.399-0.286,1.845
		c-0.215,0.445-0.966,1.194-1.684,1.656l-5.38,3.488c-0.724,0.464-1.937,1.146-2.712,1.503l-7.666,3.562
		c-0.781,0.364-2.064,0.944-2.844,1.293l-5.428,2.424c-0.789,0.348-2.08,0.873-2.884,1.179l-2.254,0.835
		c-0.798,0.3-1.992,0.507-2.651,0.469c-0.645-0.035-1.313,0.614-1.467,1.463l-0.012,0.037c-0.156,0.842-0.184,2.133-0.07,2.862
		c0.133,0.741-0.111,1.94-0.533,2.688l-3.647,6.449c-0.423,0.754-1.28,1.83-1.911,2.403L78.004,98.701z"/>
	<rect fill="none" width="128" height="128"/>
</g>
</svg>
