<?xml version="1.0" encoding="utf-8"?>
<!-- Generator: Adobe Illustrator 16.0.0, SVG Export Plug-In . SVG Version: 6.00 Build 0)  -->
<!DOCTYPE svg PUBLIC "-//W3C//DTD SVG 1.1//EN" "http://www.w3.org/Graphics/SVG/1.1/DTD/svg11.dtd">
<svg version="1.1" id="Layer_1" xmlns="http://www.w3.org/2000/svg" xmlns:xlink="http://www.w3.org/1999/xlink" x="0px" y="0px"
	 width="361.547px" height="337.893px" viewBox="299.229 54.983 361.547 337.893"
	 enable-background="new 299.229 54.983 361.547 337.893" xml:space="preserve">
<title>a1</title>
<g>
	<path d="M657.479,194.202L485.458,56.894c-3.192-2.548-7.724-2.548-10.916,0l-172.02,137.308c-3.777,3.014-4.396,8.52-1.383,12.297
		c0.116,0.146,0.236,0.287,0.361,0.424l34.327,37.8c3.072,3.421,8.285,3.837,11.86,0.946l8.063-6.531v145.129
		c0.096,4.838,4.086,8.688,8.925,8.608h230.65c4.838,0.079,8.829-3.771,8.925-8.608V239.138l8.061,6.528
		c3.582,2.893,8.802,2.477,11.882-0.946l34.316-37.8c3.246-3.58,2.975-9.114-0.605-12.359c-0.138-0.125-0.28-0.246-0.425-0.361
		V194.202z M515.875,375.375h-71.75V288.75h71.75V375.375z M586.75,375.375h-53.375v-95.007c0-4.833-3.727-9.118-8.559-9.118
		h-89.633c-4.832,0-8.559,4.288-8.559,9.118v95.007H373.25V225.119L480,139.742l106.75,85.377V375.375z M616.744,226.867
		L485.471,121.701c-3.197-2.56-7.741-2.56-10.938,0L343.256,226.867l-22.528-24.806L480,74.929l159.271,127.132L616.744,226.867z"/>
</g>
</svg>
