<svg xmlns="http://www.w3.org/2000/svg" data-name="Layer 1" viewBox="0 0 512 640" x="0px" y="0px"><title>a1</title><g data-name="Group"><path data-name="Compound Path" d="M458.832,221.945,262.238,65.022a10,10,0,0,0-12.476,0L53.168,221.945A10,10,0,0,0,52,236.483l39.231,43.2a9.873,9.873,0,0,0,13.554,1.081L114,273.3V439.162A10.038,10.038,0,0,0,124.2,449H387.8a10.038,10.038,0,0,0,10.2-9.838V273.3l9.212,7.461a9.9,9.9,0,0,0,13.579-1.081l39.219-43.2a10,10,0,0,0-1.178-14.538ZM297,429H215V330h82Zm81,0H317V320.42c0-5.523-4.259-10.42-9.781-10.42H204.781c-5.522,0-9.781,4.9-9.781,10.42V429H134V257.279l122-97.574,122,97.574Zm34.279-169.723L262.252,139.087a10,10,0,0,0-12.5,0L99.721,259.277l-25.746-28.35L256,85.633,438.025,230.927Z"/></g><text x="0" y="527" fill="#000000" font-size="5px" font-weight="bold" font-family="'Helvetica Neue', Helvetica, Arial-Unicode, Arial, Sans-serif">Created by Jony</text><text x="0" y="532" fill="#000000" font-size="5px" font-weight="bold" font-family="'Helvetica Neue', Helvetica, Arial-Unicode, Arial, Sans-serif">from the Noun Project</text></svg>