<?xml version="1.0" encoding="utf-8"?>
<!-- Generator: Adobe Illustrator 16.0.0, SVG Export Plug-In . SVG Version: 6.00 Build 0)  -->
<!DOCTYPE svg PUBLIC "-//W3C//DTD SVG 1.1//EN" "http://www.w3.org/Graphics/SVG/1.1/DTD/svg11.dtd">
<svg version="1.1" id="Layer_1" xmlns="http://www.w3.org/2000/svg" xmlns:xlink="http://www.w3.org/1999/xlink" x="0px" y="0px"
	 width="43px" height="43px" viewBox="0 0 43 43" enable-background="new 0 0 43 43" xml:space="preserve">
<g>
	<g>
		<polygon fill="#FFFFFF" points="36.413,41.082 6.584,41.082 6.584,20.645 7.936,20.645 7.936,39.732 35.064,39.732 35.064,20.645 
			36.413,20.645 		"/>
	</g>
	<g>
		<polygon fill="#FFFFFF" points="2.839,22.242 1.891,21.281 21.499,1.918 41.109,21.281 40.159,22.242 21.499,3.816 		"/>
	</g>
	<g>
		<path fill="#FFFFFF" d="M27.552,40.408h-1.351V25.586c0-0.909-0.741-1.65-1.65-1.65h-6.103c-0.911,0-1.652,0.741-1.652,1.65
			v14.822h-1.35V25.586c0-1.652,1.348-3.002,3.002-3.002h6.103c1.654,0,3.001,1.35,3.001,3.002V40.408z"/>
	</g>
</g>
</svg>
