<?xml version="1.0" encoding="utf-8"?>
<!-- Generator: Adobe Illustrator 16.0.0, SVG Export Plug-In . SVG Version: 6.00 Build 0)  -->
<!DOCTYPE svg PUBLIC "-//W3C//DTD SVG 1.1//EN" "http://www.w3.org/Graphics/SVG/1.1/DTD/svg11.dtd">
<svg version="1.1" id="Layer_1" xmlns="http://www.w3.org/2000/svg" xmlns:xlink="http://www.w3.org/1999/xlink" x="0px" y="0px"
	 width="128px" height="128px" viewBox="0 0 128 128" enable-background="new 0 0 128 128" xml:space="preserve">
<g>
	<rect fill="none" width="128" height="128"/>
	<path fill="#FFFFFF" d="M32.384,27.529c1.783-0.014,2.142,0.989,2.383,2.471c-0.015,0.61-0.027,1.229-0.038,1.847
		c0.128,0.639,0.257,1.285,0.388,1.925c0.392,2.373-0.073,5.461-0.578,7.16c-0.384,1.311,0.018,2.463-1.118,3.014
		c-0.063,0.722-0.131,1.175-0.537,1.538c0.12,0.54,0.58,0.759,0.652,1.386c-0.206,0.232-0.406,0.459-0.615,0.694
		c0.615-0.178,1.365-0.45,1.964-0.312c0.102,0.228,0.194,0.439,0.386,0.581c1.252-0.347,2.64,1.48,3.352,1.96
		c0-0.023,0-0.046,0-0.077c0.594-1.276-0.213-2.626,0-3.578c0.127-0.088,0.148-0.122,0.346-0.154
		c0.477,0.485,0.646,1.624,0.695,2.504c0.049,0,0.105,0,0.15,0c0.584-0.592,0.967-1.406,1.313-2.236
		c0.177-0.438,0.221-1.306,0.574-1.577c0.23-0.178,0.543-0.064,0.813,0c0.155,0.21,0.271,0.336,0.382,0.617
		c-0.013,0.027-0.025,0.05-0.036,0.073c-0.027,0.017-0.053,0.031-0.076,0.04c-0.155-0.063-0.307-0.126-0.462-0.194
		c-0.365,1.041-0.721,2.083-1.079,3.124c1.175-0.723,1.994-1.872,3.388-2.351c0.755-0.26,1.613,0.348,1.738,0.924
		c-0.303-0.129-0.598-0.256-0.891-0.389c-1.535,1.1-2.702,1.472-3.814,3.084c1.148-0.389,3.47-1.147,3.661,0.694
		c-0.014,0.014-0.024,0.023-0.037,0.037c-0.283-0.147-0.437-0.342-0.657-0.541c-0.506,0.249-1.229,0.132-1.847,0.27
		c-0.491,0.118-0.911,0.403-1.312,0.618c0,0.153,0,0.308,0,0.463c-1.58,1.111-2.633,0.704-4.852,1.116
		c0.023-0.052,0.054-0.104,0.077-0.152c0.071-0.058,0.021-0.005,0.079-0.078c-0.411-0.084-1.671-0.328-2.087-0.036
		c-0.266,0.188-0.403,0.319-0.917,0.228c0.24,0.35,0.484,0.695,0.729,1.041c0.611,0.467,1.27,0.819,1.729,1.424
		c0.537,0.708,0.849,1.36,1.577,1.891c0.354,0.153,0.698,0.309,1.044,0.46c1.533,1.118,3.104,2.524,4.275,4.008
		c0.555,0.703,1.316,1.763,1.652,2.613c0.067,0.248,0.13,0.49,0.191,0.738c0.261,0.319,0.521,0.638,0.775,0.962
		c0.544,0.91,0.707,2.033,1.349,2.851c0.18,0.09,0.355,0.181,0.537,0.269c0.186,0.295,0.163,0.375,0.425,0.576
		c0.424-0.244,0.883-0.725,1.35-0.886c3.019-1.035,9.543-2.881,11.326,0.617c0.275,0.543-0.021,1.11,0.154,1.731
		c0.153,0.299,0.305,0.592,0.46,0.887c0.362,0.943,0.539,1.881,0.73,2.929c0.229,1.257-0.106,2.681,0.387,3.619
		c0.128,0.056,0.255,0.103,0.383,0.153c0.161-0.455,0.666-0.58,0.851-1.002c0.364-0.847-0.264-1.834,0.728-2.192
		c0.102,0.037,0.205,0.08,0.314,0.116c0.193,0.387,0.287,0.918,0.306,1.5c1.317-0.258,2.203-1.963,2.966-2.851
		c0.145-0.174,0.083-0.305,0.307-0.426c0.168-0.024,0.332-0.05,0.498-0.074c0.686,0.347,0.521,0.774,0.813,1.541
		c0.113-0.118,0.228-0.231,0.347-0.346c1.037-0.493,2.687-2.649,4.312-1.892c0.728,0.344,0.978,0.588,1.157,1.468
		c-0.012,0-0.026,0-0.043,0c-0.414-0.321-0.646-0.714-1.151-0.966c-0.239,0.451-1.229,0.584-1.66,0.85
		c-1.104,0.923-2.2,1.85-3.306,2.77c0,0.019,0,0.031,0,0.041c0.656-0.084,1.271,0.123,2.074,0
		c3.773-0.582,10.604-0.359,10.942,3.392c-0.358-0.438-0.721-0.876-1.081-1.31c-0.23-0.132-1.047-0.195-1.348-0.313
		c-2.943-1.13-6.458-1.064-9.747-0.189c-0.86,0.229-1.642,0.184-2.347,0.537c-0.895,0.447-3.002,2.075-3.583,2.852
		c0,0.015,0,0.029,0,0.037c0.612,0.041,2.247,0.504,2.542,0.811c0.143,0.245,0.283,0.491,0.42,0.73
		c0.195,0.158,0.387,0.31,0.585,0.463c0.269,0.481,0.204,1.568-0.114,1.886c0-0.022,0-0.047,0-0.077
		c-0.143-0.361,0.061-0.771-0.125-1.075c-0.59-0.989-2.917-2.505-4.811-2.118c-0.732,0.15-1.708,0.42-2.542,0.076
		c-3.028-1.238-3.885-4.607-4.62-8.164c-0.014,0-0.023,0-0.037,0c-1.404,0.527-2.842,1.35-4.315,1.811
		c-0.877,0.14-1.744,0.279-2.622,0.419c0.644,2.021,1.286,4.034,1.924,6.051c0.846,2.133,2.583,4.627,4.201,6.013
		c1.739,1.481,3.989,3.266,6.281,4.117c1.571,0.584,3.248,1.108,4.813,1.577c0.164-0.01,0.332-0.022,0.502-0.035
		c0.561,0.116,1.127,0.259,1.771,0.382c0.217-0.023,0.438-0.047,0.65-0.076c0.938,0.217,2.164,0.354,3.089,0.193
		c0.146-0.025,1.019,0.219,1.265,0.191c0.115-0.063,0.237-0.129,0.352-0.191c0.207,0.026,0.41,0.053,0.613,0.074
		c0.717-0.111,1.4-0.141,2.195-0.307c0.51-0.1,1.309,0.029,1.889-0.113c0.563-0.143,1.092-0.336,1.658-0.27
		c0.443,0.051,1.008-0.357,1.383-0.424c0.522-0.09,1.075-0.236,1.619-0.349c0.129,0.028,0.256,0.05,0.383,0.077
		c0.396-0.103,0.905-0.478,1.352-0.575c0.477-0.104,0.82-0.036,1.27-0.231c0.205-0.093,2.014-0.861,2.197-0.697
		c1.699-1.006,3.723-1.654,5.584-2.461c0.588-0.262,1.125-0.799,1.695-1.08c2.152-1.065,4.02-2.215,6.043-3.391
		c0.055-0.089,0.105-0.18,0.154-0.268c0.227-0.092,0.44-0.182,0.66-0.268c0.473-0.384,0.934-0.896,1.422-1.235
		c0.146-0.052,0.282-0.103,0.424-0.152c0.098-0.091,0.078-0.269,0.19-0.349c1.757-1.182,3.298-2.611,4.974-3.854
		c0.789-0.586,1.602-1.007,2.35-1.617c1.133-0.933,2.152-2.072,3.354-2.965c1.258-0.943,2.674-1.775,3.813-2.851
		c0.299,0.037,0.383,0.19,0.574,0.075c0.161-0.077,0.202-0.161,0.229-0.381c0.049,0.037,0.102,0.078,0.154,0.112
		c0.287,1.541-1.49,2.979-2.422,3.734c-0.932,0.926-1.855,1.85-2.773,2.772c-1.941,1.623-3.883,3.237-5.824,4.856
		c-2.295,1.815-4.391,3.918-6.733,5.7c-2.33,1.762-4.849,3.152-7.44,4.699c-2.064,1.233-4.242,2.576-6.652,3.427
		c-0.867,0.37-1.729,0.741-2.586,1.118c-1.469,0.576-2.985,0.901-4.584,1.343c-0.598,0.171-1.469,0.459-2.082,0.468
		c-0.879,0.189-1.77,0.383-2.66,0.577c-1.436,0.167-2.873,0.332-4.311,0.499c-1.004,0.162-2.386,0.197-3.389,0.036
		c-1.014-0.036-2.031-0.076-3.039-0.113c-2.255-0.366-4.443-0.575-6.477-1.194c-7.699-2.354-13.947-6.609-17.178-13.404
		c-0.637-1.34-1.239-2.85-1.618-4.434c-0.16-0.908-0.328-1.818-0.496-2.732c-0.078-0.182-0.888-0.996-1.079-1.189
		c-0.551,0.121-1.44-0.313-1.894-0.5c-1.365-0.574-2.394-1.341-3.461-2.197c-0.369-0.357-0.75-0.718-1.123-1.08
		c0,0.02,0,0.026,0,0.039c0.119,0.851,0.234,1.7,0.348,2.543c0.123,0.701-0.067,1.531-0.192,2.08
		c-0.619,2.873-2.051,4.209-5.002,4.738c-0.739,0.131-1.048-0.275-1.501-0.388c-0.426-0.099-3.142,0.397-3.514,0.542
		c-0.382,0.154-1.338,0.813-1.42,1.236c-0.067,0.349,0.072,0.324-0.152,0.61c0.063,0.13,0.123,0.257,0.19,0.386
		c-0.367-0.156-0.531-0.691-0.688-1.037c0.252-1.619,3.102-2.285,4.771-2.582c0-0.049,0-0.104,0-0.154
		c-0.506-0.928-1.572-1.563-2.391-2.192c-0.369-0.325-0.74-0.642-1.112-0.968c-0.38-0.113-0.747-0.23-1.118-0.346
		c-2.359-0.978-5.253-1.981-8.055-2.465c-0.943,0.012-1.896,0.024-2.847,0.037c-0.206,0.278-0.487,0.493-0.615,0.848
		c-0.023-0.008-0.047-0.024-0.075-0.041c0-0.008,0-0.021,0-0.036c0.067-0.815,0.74-1.649,1.462-1.808
		c0.438,0.011,0.87,0.023,1.313,0.035c0.307-0.024,0.615-0.049,0.916-0.076c0.968,0.207,2.138,0.524,3.006,0.736
		c0.553,0.073,1.104,0.149,1.661,0.229c0.651,0.246,1.304,0.49,1.961,0.729c0.729,0.215,1.912,0.047,2.544,0.35
		c-0.089-0.731-0.35-1.356-0.733-1.811c-0.206-0.181-0.41-0.359-0.614-0.54c-0.142-0.276-0.091-0.467-0.191-0.771
		c-0.063-0.174-0.981-1.204-1.156-1.311c-0.026,0.041-0.053,0.079-0.076,0.115c-0.054,0.184-0.1,0.357-0.155,0.538
		c-0.023-0.022-0.054-0.048-0.076-0.077c-0.168-0.648-0.132-1.396,0.231-1.729c0.101,0.01,0.204,0.026,0.308,0.039
		c0.916,0.459,2.439,3.016,3.076,3.97c0.417,0.61,0.79,1.468,1.812,1.34c0.43-1.269-0.474-2.589-0.115-3.962
		c0.024-0.01,0.051-0.026,0.076-0.041c0.063,0,0.133,0,0.199,0c0.675,0.438,0.413,1.505,0.651,2.391
		c0.318,1.209,0.668,1.848,1.807,2.23c0-0.012,0-0.023,0-0.038c-0.938-1.954-0.315-4.849,0.162-6.699
		c-0.095-0.183-0.188-0.36-0.277-0.539c-0.218-0.789,0.205-1.337,0.504-1.731c-0.788-1.088-1.572-2.433-2.231-3.583
		c-0.104-0.349-0.208-0.698-0.311-1.041c-0.157-0.221-0.45-0.346-0.58-0.617c-0.43-0.88-0.303-1.702-0.538-2.811
		c-0.424-1.995-1.081-3.908-1.385-6.161c-0.015,0-0.028,0-0.041,0c-0.465,0.262-0.613-0.155-1.078-0.08
		c-0.151,0.09-0.305,0.184-0.459,0.271c-1.328,0.359-2.426-0.681-2.623-1.538c0.026-0.313,0.053-0.618,0.076-0.926
		c-0.177-0.506-1.622-1.958-2.153-2.083c-0.183,0.172-0.273,0.418-0.502,0.54c-0.026-0.852,0.584-1.264,1.387-1.041
		c0.31,0.481,0.8,1.029,1.269,1.352c0.014,0,0.027,0,0.037,0c0.067-0.489,0.269-0.666,0.501-0.969
		c-0.226-1.027-1.271-3.589-1.11-4.31c0.09-0.012,0.18-0.027,0.268-0.041c0.879,0.515,0.949,3.042,1.617,3.74
		c1.756-0.07,0.783-3.986,2.158-4.358c0.038,0.067,0.074,0.132,0.115,0.195c0.121,0.252-0.502,3.528-0.658,4.163
		c0.22,0.061,0.435,0.125,0.658,0.191c-0.01-0.567-0.153-1.622-0.041-2.078c0.194-0.412,0.385-0.827,0.58-1.237
		c0.062-0.357,0.126-0.718,0.19-1.079c0.168-0.447,0.332-0.896,0.502-1.344c0.515-1.646,0.831-3.206,1.466-4.736
		c0.188-0.464,0.577-0.885,0.73-1.429c0.576-2.061,0.61-4.313,1.729-5.815c0.757-1.003,1.841-1.094,3.083-1.654
		c0.835-0.374,1.493-1.204,2.232-1.657C31.839,27.71,32.107,27.623,32.384,27.529z M68.968,74.061
		c-0.444,0.641-0.893,1.285-1.34,1.928c0.022,0.025,0.05,0.051,0.073,0.074c0.615-0.287,1.406-0.754,1.809-1.271
		C69.348,74.529,69.234,74.227,68.968,74.061z"/>
</g>
</svg>
