<?xml version="1.0" encoding="utf-8"?>
<!-- Generator: Adobe Illustrator 16.0.0, SVG Export Plug-In . SVG Version: 6.00 Build 0)  -->
<!DOCTYPE svg PUBLIC "-//W3C//DTD SVG 1.1//EN" "http://www.w3.org/Graphics/SVG/1.1/DTD/svg11.dtd">
<svg version="1.1" id="Layer_1" xmlns="http://www.w3.org/2000/svg" xmlns:xlink="http://www.w3.org/1999/xlink" x="0px" y="0px"
	 width="303.058px" height="448px" viewBox="328.438 0 303.058 448" enable-background="new 328.438 0 303.058 448"
	 xml:space="preserve">
<g>
	<path d="M480,0c83.632,0,151.495,67.863,151.495,151.495c0,46.976-33.042,98.761-62.121,144.361
		C537.811,345.34,509.364,397.148,480,448c-29.364-50.852-57.812-102.66-89.374-152.144c-29.079-45.6-62.121-97.385-62.121-144.361
		C328.505,67.863,396.368,0,480,0z M480,20.087c-72.624,0-131.407,58.784-131.407,131.408c0,41.25,31.333,90.362,58.91,133.606
		c25.647,40.214,48.613,81.48,72.497,122.834c23.884-41.354,46.85-82.612,72.497-122.834c27.577-43.244,58.91-92.356,58.91-133.606
		C611.407,78.872,552.624,20.087,480,20.087z"/>
	<path d="M480,84.257c37.139,0,67.238,30.1,67.238,67.238c0,37.106-30.132,67.238-67.238,67.238
		c-37.114,0-67.238-30.131-67.238-67.238C412.762,114.357,442.861,84.257,480,84.257z M480,104.345
		c-26.043,0-47.15,21.107-47.15,47.15c0,26.066,21.084,47.15,47.15,47.15s47.15-21.084,47.15-47.15
		C527.15,125.452,506.043,104.345,480,104.345z"/>
</g>
<text transform="matrix(1 0 0 1 328.4375 1634.25)" font-family="'HelveticaLTStd-Bold'" font-size="395.4244">Created by Raden Situbondo</text>
<text transform="matrix(1 0 0 1 328.4375 2029.6875)" font-family="'HelveticaLTStd-Bold'" font-size="395.4244">from the Noun Project</text>
</svg>
