<svg xmlns="http://www.w3.org/2000/svg" xmlns:xlink="http://www.w3.org/1999/xlink" xml:space="preserve" style="shape-rendering:geometricPrecision;text-rendering:geometricPrecision;image-rendering:optimizeQuality;" viewBox="0 0 3.8312 7.0809999999999995" x="0px" y="0px" fill-rule="evenodd" clip-rule="evenodd"><defs><style type="text/css">
   
    .fil0 {fill:black;fill-rule:nonzero}
   
  </style></defs><g><path class="fil0" d="M1.9156 0c1.0575,0 1.9156,0.8581 1.9156,1.9156 0,0.594 -0.4178,1.2488 -0.7855,1.8254 -0.3991,0.6257 -0.7588,1.2808 -1.1301,1.9238 -0.3713,-0.643 -0.731,-1.2981 -1.1301,-1.9238 -0.3677,-0.5766 -0.7855,-1.2314 -0.7855,-1.8254 0,-1.0575 0.8581,-1.9156 1.9156,-1.9156zm0 0.254c-0.9183,0 -1.6616,0.7433 -1.6616,1.6616 0,0.5216 0.3962,1.1426 0.7449,1.6894 0.3243,0.5085 0.6147,1.0303 0.9167,1.5532 0.302,-0.5229 0.5924,-1.0446 0.9167,-1.5532 0.3487,-0.5468 0.7449,-1.1678 0.7449,-1.6894 0,-0.9183 -0.7433,-1.6616 -1.6616,-1.6616z"/><path class="fil0" d="M1.9156 1.0654c0.4696,0 0.8502,0.3806 0.8502,0.8502 0,0.4692 -0.381,0.8502 -0.8502,0.8502 -0.4693,0 -0.8502,-0.381 -0.8502,-0.8502 0,-0.4696 0.3806,-0.8502 0.8502,-0.8502zm0 0.254c-0.3293,0 -0.5962,0.2669 -0.5962,0.5962 0,0.3296 0.2666,0.5962 0.5962,0.5962 0.3296,0 0.5962,-0.2666 0.5962,-0.5962 0,-0.3293 -0.2669,-0.5962 -0.5962,-0.5962z"/></g><text x="0" y="20.6648" fill="#000000" font-size="5px" font-weight="bold" font-family="'Helvetica Neue', Helvetica, Arial-Unicode, Arial, Sans-serif">Created by Raden Situbondo</text><text x="0" y="25.6648" fill="#000000" font-size="5px" font-weight="bold" font-family="'Helvetica Neue', Helvetica, Arial-Unicode, Arial, Sans-serif">from the Noun Project</text></svg>