<?xml version="1.0" encoding="utf-8"?>
<!-- Generator: Adobe Illustrator 16.0.0, SVG Export Plug-In . SVG Version: 6.00 Build 0)  -->
<!DOCTYPE svg PUBLIC "-//W3C//DTD SVG 1.1//EN" "http://www.w3.org/Graphics/SVG/1.1/DTD/svg11.dtd">
<svg version="1.1" id="Layer_1" xmlns="http://www.w3.org/2000/svg" xmlns:xlink="http://www.w3.org/1999/xlink" x="0px" y="0px"
	 width="43px" height="43px" viewBox="0 0 43 43" enable-background="new 0 0 43 43" xml:space="preserve">
<g>
	<g>
		<path fill="#FFFFFF" d="M21.364,35.941l-0.505-0.566c-0.443-0.5-10.875-12.332-10.875-22.57c0-6.273,5.104-11.38,11.38-11.38
			c6.272,0,11.378,5.104,11.378,11.38c0,10.162-10.43,22.066-10.874,22.568L21.364,35.941z M21.364,2.775
			c-5.532,0-10.029,4.498-10.029,10.029c0,8.482,7.925,18.557,10.027,21.078c2.099-2.533,10.03-12.664,10.03-21.078
			C31.393,7.273,26.895,2.775,21.364,2.775z"/>
	</g>
	<g>
		<path fill="#FFFFFF" d="M21.493,17.331c-2.421,0-4.395-1.972-4.395-4.396s1.974-4.396,4.395-4.396
			c2.425,0,4.396,1.972,4.396,4.396S23.918,17.331,21.493,17.331z M21.493,9.891c-1.678,0-3.043,1.366-3.043,3.045
			c0,1.68,1.365,3.045,3.043,3.045c1.681,0,3.046-1.365,3.046-3.045C24.539,11.257,23.172,9.891,21.493,9.891z"/>
	</g>
	<g>
		<polygon fill="#FFFFFF" points="35.961,41.575 7.039,41.575 11.664,28.141 14.333,28.141 14.333,29.49 12.623,29.49 8.93,40.225 
			34.068,40.225 30.377,29.49 28.668,29.49 28.668,28.141 31.34,28.141 		"/>
	</g>
</g>
</svg>
