<svg xmlns="http://www.w3.org/2000/svg" xmlns:xlink="http://www.w3.org/1999/xlink" xml:space="preserve" version="1.1" style="shape-rendering:geometricPrecision;text-rendering:geometricPrecision;image-rendering:optimizeQuality;" viewBox="0 0 847 1058.75" x="0px" y="0px" fill-rule="evenodd" clip-rule="evenodd"><defs><style type="text/css">
   
    .fil0 {fill:black}
   
  </style></defs><g><circle class="fil0" cx="594" cy="131" r="80"/><path class="fil0" d="M758 156c-26,37 -98,88 -163,62 -94,-41 -200,69 -243,141 -10,17 -3,38 15,45 -10,68 24,126 23,191 -1,76 -58,83 -111,42l-10 13c65,50 136,34 138,-54 1,-65 -33,-127 -23,-190 8,-2 16,-7 21,-15 19,-32 44,-68 79,-91 -9,43 -43,142 -17,177l-9 118c-4,19 -40,84 -76,140 -28,44 39,85 67,42 42,-65 88,-145 88,-181 0,-12 1,-37 3,-61 20,30 42,65 49,78 5,17 5,86 2,141 -3,52 76,57 79,4 3,-65 5,-149 -9,-178 -11,-23 -49,-80 -66,-105 13,-28 33,-148 41,-186 70,0 133,-41 172,-97 24,-33 -27,-69 -50,-36z"/><path class="fil0" d="M90 606l-31 -25c-16,-13 -37,12 -20,26l31 25 0 68c0,0 -27,54 -27,54 -10,19 18,34 28,15l28 -53 31 53c10,19 38,3 28,-16l-27 -47 100 0 0 55c0,9 7,16 16,16 9,0 16,-7 16,-16l0 -60c0,-1 0,-1 0,-1l0 -51 -75 -43 -98 0z"/><path class="fil0" d="M290 626c20,9 53,6 55,-21 2,-16 -37,-28 -40,-32 -10,-9 -11,-23 -25,-28 -11,-8 -7,-5 -6,-21 2,-22 -22,-35 -30,-7 -6,24 -33,57 -47,79l70 41c0,0 9,-17 23,-11z"/></g><text x="0" y="862" fill="#000000" font-size="5px" font-weight="bold" font-family="'Helvetica Neue', Helvetica, Arial-Unicode, Arial, Sans-serif">Created by Angriawan Ditya Zulkarnain</text><text x="0" y="867" fill="#000000" font-size="5px" font-weight="bold" font-family="'Helvetica Neue', Helvetica, Arial-Unicode, Arial, Sans-serif">from the Noun Project</text></svg>