<?xml version="1.0" encoding="utf-8"?>
<!-- Generator: Adobe Illustrator 16.0.0, SVG Export Plug-In . SVG Version: 6.00 Build 0)  -->
<!DOCTYPE svg PUBLIC "-//W3C//DTD SVG 1.1//EN" "http://www.w3.org/Graphics/SVG/1.1/DTD/svg11.dtd">
<svg version="1.1" id="Layer_1" xmlns="http://www.w3.org/2000/svg" xmlns:xlink="http://www.w3.org/1999/xlink" x="0px" y="0px"
	 width="413.399px" height="393.757px" viewBox="273.291 26.975 413.399 393.757"
	 enable-background="new 273.291 26.975 413.399 393.757" xml:space="preserve">
<g>
	<circle cx="570.182" cy="69.289" r="42.314"/>
	<path d="M656.926,82.512c-13.752,19.57-51.835,46.545-86.215,32.793c-49.719-21.686-105.785,36.496-128.529,74.579
		c-5.289,8.992-1.587,20.099,7.934,23.802c-5.289,35.967,12.694,66.645,12.166,101.025c-0.529,40.198-30.678,43.9-58.711,22.215
		l-5.289,6.876c34.38,26.446,71.934,17.983,72.991-28.563c0.529-34.38-17.454-67.173-12.165-100.496
		c4.231-1.058,8.463-3.702,11.107-7.934c10.05-16.926,23.272-35.967,41.785-48.132c-4.761,22.744-22.744,75.107-8.992,93.62
		l-4.76,62.414c-2.116,10.05-21.157,44.43-40.198,74.05c-14.811,23.272,20.628,44.958,35.438,22.215
		c22.215-34.381,46.546-76.694,46.546-95.736c0-6.347,0.529-19.569,1.587-32.265c10.578,15.868,22.215,34.381,25.917,41.257
		c2.645,8.991,2.645,45.487,1.058,74.578c-1.587,27.505,40.198,30.149,41.785,2.116c1.587-34.38,2.645-78.811-4.76-94.148
		c-5.818-12.166-25.918-42.314-34.909-55.538c6.876-14.81,17.454-78.281,21.686-98.38c37.025,0,70.348-21.686,90.976-51.306
		C696.066,84.099,669.091,65.058,656.926,82.512z"/>
	<path d="M303.604,320.529l-16.397-13.224c-8.463-6.876-19.57,6.348-10.579,13.752l16.397,13.224v35.967l-14.281,28.562
		c-5.289,10.05,9.521,17.983,14.81,7.935l14.81-28.033l16.396,28.033c5.29,10.049,20.099,1.586,14.81-8.463l-14.281-24.859h52.893
		v29.091c0,4.76,3.703,8.463,8.463,8.463s8.463-3.703,8.463-8.463v-31.735c0-0.529,0-0.529,0-0.529v-26.976l-39.669-22.743H303.604z
		"/>
	<path d="M409.389,331.107c10.578,4.761,28.033,3.174,29.091-11.107c1.058-8.463-19.57-14.811-21.157-16.926
		c-5.289-4.76-5.818-12.165-13.223-14.81c-5.818-4.231-3.703-2.646-3.174-11.107c1.058-11.637-11.637-18.513-15.868-3.703
		c-3.173,12.694-17.454,30.149-24.859,41.785l37.024,21.687C397.223,336.926,401.983,327.934,409.389,331.107z"/>
</g>
</svg>
