<?xml version="1.0" encoding="utf-8"?>
<!-- Generator: Adobe Illustrator 16.0.0, SVG Export Plug-In . SVG Version: 6.00 Build 0)  -->
<!DOCTYPE svg PUBLIC "-//W3C//DTD SVG 1.1//EN" "http://www.w3.org/Graphics/SVG/1.1/DTD/svg11.dtd">
<svg version="1.1" id="Layer_1" xmlns="http://www.w3.org/2000/svg" xmlns:xlink="http://www.w3.org/1999/xlink" x="0px" y="0px"
	 width="128px" height="128px" viewBox="0 0 128 128" enable-background="new 0 0 128 128" xml:space="preserve">
<g>
	<g>
		<path fill="#FFFFFF" d="M47.036,39.225c1.03-0.861,2.146-1.667,3.356-2.417c1.207-0.751,2.507-1.41,3.896-1.98
			c1.391-0.569,2.883-1.013,4.48-1.334c1.597-0.319,3.326-0.479,5.19-0.479c2.608,0,4.964,0.349,7.063,1.042
			c2.096,0.697,3.881,1.689,5.354,2.98s2.604,2.849,3.398,4.667c0.791,1.819,1.188,3.842,1.188,6.063c0,2.142-0.292,3.976-0.875,5.5
			c-0.585,1.529-1.328,2.863-2.23,4.003c-0.903,1.14-1.89,2.119-2.957,2.938c-1.07,0.82-2.086,1.591-3.045,2.313
			c-0.957,0.724-1.791,1.432-2.498,2.125c-0.711,0.695-1.146,1.475-1.313,2.334l-1.166,5.836H58.04l-0.917-6.711
			c-0.028-0.166-0.049-0.334-0.063-0.5s-0.021-0.332-0.021-0.5c0-1.224,0.292-2.292,0.875-3.208c0.583-0.919,1.318-1.756,2.21-2.521
			c0.888-0.764,1.847-1.501,2.875-2.208c1.027-0.711,1.985-1.473,2.874-2.293c0.891-0.818,1.625-1.737,2.209-2.752
			c0.583-1.013,0.875-2.213,0.875-3.604c0-1.667-0.547-2.993-1.646-3.979c-1.096-0.986-2.604-1.479-4.521-1.479
			c-1.471,0-2.7,0.15-3.687,0.457s-1.834,0.646-2.541,1.021c-0.709,0.375-1.328,0.715-1.854,1.02
			c-0.529,0.309-1.056,0.459-1.586,0.459c-1.192,0-2.081-0.513-2.664-1.542L47.036,39.225z M54.706,87.857
			c0-1,0.188-1.931,0.561-2.791c0.375-0.862,0.891-1.613,1.543-2.25c0.652-0.641,1.424-1.147,2.313-1.521
			c0.89-0.375,1.863-0.563,2.919-0.563c1.025,0,1.985,0.188,2.873,0.563c0.892,0.374,1.67,0.882,2.335,1.521
			c0.668,0.637,1.188,1.388,1.563,2.25c0.375,0.86,0.563,1.791,0.563,2.791s-0.188,1.938-0.563,2.813
			c-0.373,0.876-0.895,1.635-1.563,2.273c-0.665,0.638-1.443,1.14-2.335,1.498c-0.888,0.361-1.848,0.543-2.873,0.543
			c-1.056,0-2.029-0.182-2.919-0.543c-0.889-0.358-1.66-0.86-2.313-1.498c-0.652-0.641-1.168-1.397-1.543-2.273
			C54.895,89.797,54.706,88.857,54.706,87.857z"/>
	</g>
	<rect fill="none" width="128" height="128"/>
</g>
</svg>
