<?xml version="1.0" encoding="utf-8"?>
<!-- Generator: Adobe Illustrator 16.0.0, SVG Export Plug-In . SVG Version: 6.00 Build 0)  -->
<!DOCTYPE svg PUBLIC "-//W3C//DTD SVG 1.1//EN" "http://www.w3.org/Graphics/SVG/1.1/DTD/svg11.dtd">
<svg version="1.1" id="Layer_1" xmlns="http://www.w3.org/2000/svg" xmlns:xlink="http://www.w3.org/1999/xlink" x="0px" y="0px"
	 width="43px" height="43px" viewBox="0 0 43 43" enable-background="new 0 0 43 43" xml:space="preserve">
<g>
	<path fill="#FFFFFF" d="M31.575,41.258L31.575,41.258l-0.199-0.004c-4.655-0.24-10.938-4.707-16.813-11.943l-2.172-2.672
		C6.519,19.4,3.437,12.332,4.16,7.728c0.507-3.248,5.243-5.986,7.948-5.986c1.334,0,1.816,0.676,1.986,1.078
		c1.53,2.777,3.424,7.603,3.435,9.334v0.123l-0.042,0.115c-0.338,0.91-1.094,1.347-1.763,1.73c-0.877,0.506-1.378,0.839-1.439,1.795
		c-0.019,0.291,0.229,1.611,4.104,6.483l1.657,2.039c3.888,4.678,5.109,5.18,5.396,5.223c0.938,0.133,1.377-0.287,2.054-1.039
		c0.514-0.574,1.095-1.225,2.057-1.369l0.119-0.018l0.122,0.025c1.691,0.363,6.021,3.211,8.483,5.322
		c0.354,0.24,0.975,0.953,0.482,2.529C37.991,37.588,34.636,41.258,31.575,41.258z M12.107,3.09c-2.15,0-6.23,2.394-6.614,4.847
		c-0.512,3.266,1.31,9.67,7.946,17.85l2.169,2.67c6.641,8.182,12.532,11.277,15.835,11.447l0.132,0.004
		c2.361,0.002,5.259-3.143,5.896-5.195c0.131-0.418,0.192-0.916-0.021-1.061c-2.701-2.318-6.492-4.658-7.816-5.041
		c-0.396,0.104-0.698,0.422-1.135,0.91c-0.677,0.754-1.526,1.727-3.252,1.473c-0.759-0.105-2.264-0.854-6.539-6.055l-0.434-0.527
		l0.005-0.004l-0.334-0.414l-0.003,0.002l-0.426-0.52c-4.206-5.254-4.629-6.879-4.581-7.645c0.11-1.725,1.269-2.393,2.11-2.879
		c0.565-0.327,0.938-0.557,1.123-0.921c-0.103-1.38-1.613-5.567-3.296-8.625C12.752,3.115,12.297,3.09,12.107,3.09z"/>
</g>
</svg>
