<?xml version="1.0" encoding="utf-8"?>
<!-- Generator: Adobe Illustrator 16.0.0, SVG Export Plug-In . SVG Version: 6.00 Build 0)  -->
<!DOCTYPE svg PUBLIC "-//W3C//DTD SVG 1.1//EN" "http://www.w3.org/Graphics/SVG/1.1/DTD/svg11.dtd">
<svg version="1.1" id="Layer_1" xmlns="http://www.w3.org/2000/svg" xmlns:xlink="http://www.w3.org/1999/xlink" x="0px" y="0px"
	 width="128px" height="128px" viewBox="0 0 128 128" enable-background="new 0 0 128 128" xml:space="preserve">
<g>
	<path fill="#FFFFFF" d="M111.367,65.063c0.165-0.313,0.586-0.588,0.925-0.624c0.34-0.032,0.772-0.174,0.96-0.309
		c0.191-0.139,0.387-0.446,0.438-0.682c0.054-0.246,0.099-0.716,0.099-1.051c0-0.345-0.188-0.946-0.403-1.332
		c-0.224-0.398-0.634-0.985-0.898-1.307c-0.271-0.323-0.805-0.999-1.176-1.491l-0.629-0.852c-0.369-0.497-1.063-1.242-1.529-1.66
		l-0.207-0.175c-0.477-0.415-1.264-1.063-1.758-1.444l-0.502-0.4c-0.498-0.384-1.336-0.96-1.881-1.272l-2.924-1.707
		c-0.545-0.312-0.822-0.907-0.611-1.313c0.196-0.417,0.563-1.169,0.801-1.676c0.232-0.516,0.404-1.297,0.375-1.734
		c-0.035-0.444-0.239-1.283-0.444-1.873l-0.106-0.283c-0.209-0.586-0.545-1.304-0.754-1.595c-0.201-0.294-0.668-0.77-1.024-1.057
		c-0.354-0.289-0.657-0.219-0.675,0.151c-0.016,0.382-0.164,1.039-0.313,1.46c-0.15,0.43-0.521,1.229-0.814,1.773l-0.297,0.55
		c-0.287,0.548-0.707,1.219-0.906,1.491c-0.207,0.277-0.744,0.554-1.211,0.617c-0.461,0.067-1.037-0.335-1.301-0.91l-0.361-0.838
		c-0.264-0.571-0.846-1.377-1.313-1.797l-0.167-0.156c-0.467-0.412-1.195-0.979-1.621-1.248c-0.429-0.278-1.139-0.584-1.578-0.688
		c-0.438-0.099-1.106-0.19-1.461-0.19s-0.965,0.186-1.334,0.408c-0.373,0.226-0.886,0.65-1.145,0.958
		c-0.256,0.311-0.617,0.816-0.797,1.115c-0.196,0.312-0.375,0.982-0.405,1.489c-0.047,0.514,0.002,1.308,0.087,1.768
		c0.083,0.454,0.352,1.308,0.587,1.888l0.011,0.005c0.228,0.572,0.242,1.206,0.023,1.392c-0.225,0.187-0.684,0.383-1.027,0.434
		c-0.332,0.049-1.127,0.105-1.746,0.137l-1.207,0.043c-0.625,0.022-1.631-0.088-2.229-0.25l-0.666-0.171
		c-0.6-0.154-1.584-0.433-2.174-0.624l-2.605-0.808c-0.589-0.192-1.5-0.438-2.01-0.556c-0.512-0.121-1.441-0.219-2.064-0.213
		l-4.367,0.047c-0.62,0.005-1.615,0.168-2.204,0.364l-1.441,0.466c-0.593,0.2-1.541,0.586-2.095,0.865l-1.687,0.839
		c-0.562,0.282-1.427,0.817-1.928,1.188l-1.587,1.187c-0.508,0.372-1.254,1.062-1.663,1.526l-0.794,0.9
		c-0.417,0.472-1.048,1.271-1.408,1.782l-2.648,3.724c-0.359,0.512-0.969,1.331-1.354,1.816l-1.457,1.87
		c-0.384,0.491-1.028,1.284-1.443,1.753l-0.558,0.646c-0.408,0.461-1.203,1.063-1.777,1.321l-4.139,1.906
		c-0.563,0.262-1.511,0.644-2.09,0.856l-2.641,0.957c-0.585,0.221-1.574,0.479-2.189,0.582l-1.971,0.315
		c-0.621,0.098-1.63,0.272-2.242,0.388l-2.72,0.51c-0.617,0.119-1.611,0.348-2.213,0.515l-0.474,0.132
		c-0.603,0.172-1.552,0.521-2.12,0.79l-0.433,0.213c-0.561,0.269-1.402,0.827-1.863,1.242l-0.173,0.155
		c-0.464,0.42-0.98,1.098-1.156,1.504c-0.173,0.41-0.323,1.146-0.342,1.641c-0.009,0.496,0.141,1.25,0.342,1.673
		c0.202,0.425,0.591,0.951,0.871,1.177c0.275,0.226,0.972,0.59,1.554,0.823l0.86,0.338c0.578,0.228,1.559,0.484,2.181,0.556
		l1.346,0.162c0.621,0.078,1.633,0.152,2.262,0.178l6.405,0.177c0.624,0.021,1.644,0.036,2.268,0.036h4.611
		c0.622,0,1.648,0.005,2.268,0.007l4.548,0.041c0.626,0.009,1.643,0.024,2.27,0.049l3.376,0.11c0.62,0.023,1.637,0.14,2.244,0.257
		l1.241,0.242c0.604,0.118,1.62,0.252,2.243,0.298l0.466,0.031c0.622,0.041,1.547,0.177,2.06,0.291
		c0.515,0.123,0.658,0.014,0.313-0.243c-0.34-0.259-1.121-0.566-1.737-0.687l-0.995-0.186c-0.602-0.116-1.604-0.307-2.221-0.417
		l-2.666-0.47c-0.62-0.108-1.629-0.25-2.252-0.305l-3.498-0.342c-0.627-0.063-1.646-0.126-2.269-0.146l-7.34-0.233
		c-0.628-0.021-1.65-0.033-2.27-0.033c0,0-5.494,0-5.743,0c-0.239,0-3.017-0.139-3.017-0.139c-0.621-0.026-1.631-0.144-2.259-0.249
		l-0.226-0.046c-0.625-0.106-1.585-0.335-2.151-0.505c-0.558-0.17-1.306-0.528-1.643-0.797c-0.342-0.278-0.774-0.713-0.966-0.969
		c-0.185-0.257-0.337-0.697-0.337-0.986c0-0.293,0.142-0.726,0.313-0.963c0.169-0.244,0.671-0.614,1.119-0.836
		c0.438-0.22,1.284-0.574,1.878-0.775l1.634-0.563c0.581-0.205,1.579-0.408,2.203-0.451l1.206-0.086
		c0.626-0.037,1.636-0.168,2.247-0.279l1.92-0.34c0.614-0.115,1.615-0.323,2.22-0.473l2.014-0.516
		c0.599-0.146,1.577-0.454,2.154-0.68l2.531-0.98c0.581-0.225,1.513-0.648,2.068-0.93l2.382-1.246
		c0.554-0.29,1.107-0.313,1.228-0.063c0.115,0.258,0.576,0.825,1.016,1.268l0.139,0.132c0.435,0.444,1.241,1.062,1.787,1.371
		l0.691,0.413c0.545,0.313,1.433,0.705,1.98,0.881c0.534,0.171,1.392,0.395,1.882,0.496c0.497,0.104,1.32,0.309,1.825,0.461
		c0.515,0.156,1.324,0.299,1.799,0.316c0.482,0.01,0.877,0.246,0.877,0.521c0,0.271,0.095,0.665,0.216,0.87
		c0.114,0.207,0.538,0.607,0.926,0.895c0.393,0.295,1.159,0.786,1.706,1.092l0.749,0.43c0.548,0.308,1.487,0.673,2.097,0.814
		l0.756,0.176c0.613,0.138,1.606,0.322,2.224,0.406c0.612,0.086,1.33,0.358,1.578,0.615c0.258,0.26,0.856,0.582,1.338,0.71
		c0.479,0.142,0.957,0.234,1.056,0.224c0.097-0.015,0.079-0.172-0.035-0.338c-0.114-0.173-0.213-0.375-0.213-0.438
		s0.209-0.14,0.463-0.156c0.256-0.019,0.756-0.019,1.116,0c0.355,0.021,0.843,0.095,1.085,0.156c0.233,0.063,0.651,0.157,0.925,0.22
		c0.271,0.049,0.829,0.09,1.247,0.09c0.407,0,0.924-0.07,1.144-0.15c0.221-0.09,0.334-0.252,0.245-0.37
		c-0.083-0.12-0.631-0.411-1.202-0.642c0,0-0.187-0.076-0.439-0.145c-0.252-0.057-1.614-0.732-1.799-0.732
		c-0.188,0-1.049-0.189-1.608-0.189s-0.862,0.436-2.165-0.057c-1.305-0.5-1.662-0.545-1.662-0.545
		c-0.624-0.076-1.557-0.324-2.095-0.545c-0.526-0.227-0.896-0.503-0.836-0.625c0.075-0.113,0.581-0.128,1.116-0.022
		c0.545,0.103,1.165,0.313,1.364,0.461c0.205,0.151,0.493,0.336,0.651,0.405c0.155,0.065,0.278,0.011,0.278-0.125
		c0-0.138,0.254-0.194,0.552-0.123c0,0,0,0,0.257,0c0.244,0,0.327,0.021,0.327,0.021c0.604,0.158,1.421,0.33,1.813,0.384
		c0.389,0.051,0.975,0.051,1.301,0c0.326-0.054,0.332-0.265,0.025-0.465c-0.308-0.203-1.002-0.471-1.549-0.595
		c-0.55-0.114-1.503-0.269-2.122-0.339l-0.526-0.055c-0.621-0.076-1.515-0.185-1.975-0.254c-0.463-0.066-1.083-0.184-1.392-0.255
		c-0.304-0.063-0.576-0.22-0.581-0.335c-0.016-0.117,0.378-0.328,0.892-0.467c0.51-0.135,1.293-0.313,1.734-0.398
		c0.444-0.08,1.321-0.142,1.946-0.127l0.209,0.006c0.621,0.012,1.646,0.012,2.271,0l0.202-0.006
		c0.621-0.015,1.644-0.078,2.259-0.147l0.729-0.075c0.623-0.064,1.568,0.137,2.113,0.438h0.006c0.543,0.31,1.465,0.744,2.049,0.963
		l0.48,0.184c0.583,0.227,1.557,0.53,2.17,0.678l0.084,0.021c0.604,0.146,1.275,0.319,1.504,0.392
		c0.221,0.065,0.678,0.486,1.021,0.928c0.337,0.44,0.75,1.039,0.9,1.334c0.154,0.295,0.469,0.81,0.713,1.146c0,0,0,0,0,0.187
		c0,0.183,0,0.726,0,0.726c0,0.621,0.119,1.063,0.277,0.979c0.147-0.086,0.359-0.392,0.463-0.682
		c0.098-0.294,0.27-0.531,0.373-0.531c0.105,0,0.467,0.196,0.809,0.445c0,0,0,0,0.246,0s0.246,0.004,0.246,0.004
		c0.41,0.479,0.978,1.04,1.271,1.258c0.286,0.227,0.461,0.129,0.378-0.21c-0.097-0.343-0.285-0.788-0.439-0.989
		c-0.158-0.213-0.027-0.354,0.277-0.315c0.307,0.03,0.651,0.174,0.772,0.313c0.116,0.129,0.553,0.407,0.965,0.616c0,0,0,0,0.246,0
		c0.248,0,0.248,0,0.248,0c0.233-0.036,0.352-0.175,0.248-0.313c-0.103-0.135-0.396-0.377-0.648-0.521
		c-0.259-0.155-0.608-0.362-0.776-0.471c-0.17-0.104-0.103-0.187,0.156-0.187c0.256,0,0.578-0.07,0.717-0.154
		c0.131-0.086,0.148-0.295,0.035-0.465c-0.127-0.17-0.478-0.304-0.783-0.304c-0.309,0-0.738-0.084-0.961-0.192
		c-0.219-0.101-0.541-0.186-0.709-0.186c-0.178,0-0.492-0.406-0.715-0.898c-0.217-0.494-0.484-1.287-0.584-1.771
		c-0.113-0.473-0.135-1.191-0.066-1.604c0,0,0,0,0.188-0.131c0.182-0.121,0.182-0.121,0.182-0.121
		c0.481-0.272,1.344-0.492,1.922-0.492c0,0,0,0,0.186,0c0.189,0,0.189,0,0.189,0c0.473,0.102,1.061,0.264,1.304,0.369
		c0,0,0,0,0.121,0.244c0.116,0.254,0.437,0.938,0.437,1.248c0,0.31,0.135,0.824,0.135,0.824c0.162,0.604,0.48,1.326,0.701,1.618
		c0.224,0.293,0.655,0.613,0.955,0.715c0,0,0,0,0,0.185c0,0.195,0.047,0.345,0.047,0.345c0.181,0.594,0.459,1.138,0.611,1.205
		c0.148,0.069,0.303-0.136,0.342-0.461c0.031-0.324,0.215-0.591,0.396-0.591c0.188,0,0.46,0.101,0.619,0.221
		c0.152,0.117,0.479,0.574,0.709,1.021c0,0,0,0,0.193,0.057c0.18,0.06,0.18,0.06,0.18,0.06c0.375,0.179,0.654,0.138,0.619-0.083
		c-0.031-0.227-0.127-0.656-0.211-0.964c-0.097-0.305,0.021-0.496,0.246-0.401c0.227,0.08,0.602,0.234,0.836,0.348
		c0,0,0,0,0.063,0.178c0.066,0.188,0.066,0.188,0.066,0.188c0.301,0.24,0.688,0.377,0.857,0.313
		c0.178-0.064,0.278-0.264,0.229-0.438c-0.063-0.164-0.229-0.463-0.373-0.647c-0.155-0.187-0.489-0.481-0.752-0.649
		c-0.254-0.178-0.729-0.406-1.045-0.528c-0.326-0.119-0.762-0.313-0.959-0.433c-0.211-0.123-0.447-0.373-0.533-0.554
		c-0.086-0.192-0.182-0.851-0.215-1.46c-0.039-0.615,0.182-1.564,0.469-2.118l0.054-0.104c0.287-0.551,0.731-1.467,0.995-2.038
		l0.559-1.269c0.265-0.578,0.635-1.492,0.84-2.037c0.197-0.541,0.49-1.328,0.639-1.73c0.158-0.412,0.429-0.941,0.598-1.184
		c0.172-0.231,0.584-0.502,0.936-0.592c0.34-0.08,1.125-0.187,1.752-0.229l0.338-0.021c0.619-0.041,1.643-0.066,2.268-0.058
		l0.332,0.007c0.625,0.021,1.645,0.021,2.27,0l0.271-0.007c0.617-0.011,1.646-0.104,2.262-0.204l0.475-0.076
		c0.625-0.096,1.459-0.318,1.873-0.486C110.719,65.759,111.191,65.364,111.367,65.063z"/>
	<rect fill="none" width="128" height="128"/>
</g>
</svg>
