<?xml version="1.0" encoding="utf-8"?>
<!-- Generator: Adobe Illustrator 16.0.0, SVG Export Plug-In . SVG Version: 6.00 Build 0)  -->
<!DOCTYPE svg PUBLIC "-//W3C//DTD SVG 1.1//EN" "http://www.w3.org/Graphics/SVG/1.1/DTD/svg11.dtd">
<svg version="1.1" id="Layer_1" xmlns="http://www.w3.org/2000/svg" xmlns:xlink="http://www.w3.org/1999/xlink" x="0px" y="0px"
	 width="128px" height="128px" viewBox="0 0 128 128" enable-background="new 0 0 128 128" xml:space="preserve">
<g>
	<rect fill="none" width="128" height="128"/>
	<path fill="#FFFFFF" d="M28.872,86.471c-0.262,0.282-0.548,0.604-0.867,0.948c-0.319,0.347-0.605,0.675-0.866,0.997
		c-0.256,0.316-0.391,0.532-0.391,0.645l-6.486-6.49c-0.231-0.223-0.362-0.573-0.386-1.033c-0.031-0.462-0.047-0.896-0.047-1.295
		v-0.606c0-0.981,0.314-1.747,0.952-2.292c0.633-0.548,1.411-0.966,2.336-1.259c0.922-0.286,1.874-0.503,2.855-0.646
		c0.979-0.145,1.816-0.358,2.51-0.654c-0.809-1.151-1.877-1.729-3.202-1.729c-1.616,0-3.188,0.188-4.717,0.563
		c-1.528,0.374-3.055,0.793-4.587,1.26c-1.526,0.455-3.084,0.876-4.672,1.25c-1.585,0.376-3.185,0.563-4.8,0.563
		c-0.289,0-0.779-0.031-1.472-0.084c-0.694-0.06-1.095-0.088-1.211-0.088l-0.432-0.434c1.266-0.398,2.695-0.85,4.283-1.341
		c1.586-0.49,3.156-1.081,4.714-1.771c1.558-0.697,3.041-1.5,4.459-2.429c1.41-0.922,2.551-1.955,3.415-3.11
		c-0.174-0.351-0.459-0.605-0.864-0.779c-0.403-0.172-0.824-0.326-1.256-0.479c-0.432-0.14-0.852-0.298-1.253-0.473
		c-0.407-0.169-0.725-0.462-0.955-0.87l0.866-0.859c0.175-0.06,0.533-0.247,1.08-0.563c0.551-0.313,1.141-0.636,1.776-0.952
		c0.633-0.313,1.223-0.62,1.772-0.906c0.548-0.292,0.88-0.492,0.995-0.605c1.904-1.042,3.68-2.136,5.322-3.29
		c1.643-1.153,3.288-2.279,4.934-3.373c1.642-1.102,3.327-2.12,5.062-3.072c1.73-0.951,3.688-1.746,5.881-2.382
		c1.612-0.458,3.157-0.922,4.63-1.386c1.472-0.458,2.913-0.877,4.325-1.253c1.413-0.376,2.84-0.673,4.281-0.906
		c1.442-0.232,2.945-0.344,4.501-0.344h0.606h1.903h0.52c0.576,0.111,1.589,0.313,3.029,0.599c1.442,0.293,2.954,0.594,4.539,0.916
		c1.588,0.313,3.103,0.614,4.544,0.906c1.441,0.29,2.451,0.485,3.029,0.604c0.173,0.056,0.607,0.204,1.296,0.43
		c0.692,0.23,1.128,0.381,1.301,0.435c1.729,0.749,3.39,1.635,4.976,2.638c1.582,1.012,3.243,1.863,4.975,2.555
		c0.115,0.061,0.417,0.174,0.908,0.344c0.49,0.172,0.998,0.361,1.515,0.563c0.519,0.204,1.01,0.374,1.474,0.516
		c0.459,0.153,0.747,0.25,0.863,0.309c0.17,0.113,0.488,0.39,0.952,0.824c0.458,0.43,0.721,0.736,0.774,0.906
		c0.114,0,0.273-0.043,0.478-0.124c0.204-0.093,0.332-0.189,0.39-0.308l3.465-3.465c0.863-0.748,1.801-1.326,2.812-1.73
		c1.01-0.395,2.073-0.674,3.198-0.816c1.125-0.15,2.234-0.201,3.334-0.172c1.096,0.021,2.158,0.067,3.199,0.127
		c0.463-0.234,0.863-0.358,1.211-0.389c0.346-0.03,0.75-0.045,1.213-0.045c1.151,0,2.293,0.245,3.416,0.732
		c1.125,0.496,2.207,0.825,3.244,0.997c0,0.12,0.017,0.301,0.045,0.563c0.025,0.263,0.043,0.451,0.043,0.563
		c0,0.344-0.018,0.681-0.043,0.994c-0.028,0.316-0.188,0.623-0.477,0.907l-4.76,4.759c-0.116,0.062-0.332,0.135-0.651,0.217
		c-0.315,0.09-0.532,0.159-0.645,0.219c-0.175,0.112-0.563,0.313-1.169,0.606c-0.607,0.285-1.282,0.607-2.034,0.951
		c-0.751,0.346-1.444,0.66-2.076,0.952c-0.633,0.285-1.038,0.457-1.211,0.516c-1.097,0.466-2.235,0.885-3.419,1.256
		c-1.184,0.379-2.348,0.821-3.503,1.339c-1.156,0.522-2.251,1.115-3.288,1.777c-1.037,0.666-1.962,1.51-2.771,2.555
		c0.061,1.387-0.013,2.592-0.213,3.633c-0.203,1.035-0.449,2.019-0.736,2.938c-0.289,0.929-0.563,1.851-0.82,2.771
		c-0.262,0.922-0.389,1.935-0.389,3.029c0,0.23,0.182,0.419,0.56,0.559c0.377,0.146,0.781,0.302,1.213,0.477
		c0.429,0.178,0.833,0.389,1.21,0.65c0.374,0.263,0.563,0.65,0.563,1.168c0,0.291-0.115,0.517-0.346,0.689
		c-0.231,0.174-0.447,0.338-0.651,0.481c-0.201,0.14-0.358,0.28-0.476,0.434c-0.115,0.14-0.084,0.3,0.086,0.472
		c-0.807,0.291-1.47,0.451-1.988,0.479c-0.518,0.029-1.153,0.038-1.904,0.038c-1.499,0-2.811-0.36-3.936-1.078
		c-1.127-0.722-1.687-1.921-1.687-3.59c0-1.438,0.201-2.729,0.603-3.854c0.406-1.121,0.926-2.351,1.562-3.676h-1.04
		c-0.636,0-1.369,0.118-2.205,0.344c-0.84,0.229-1.73,0.512-2.683,0.825c-0.952,0.322-1.894,0.624-2.812,0.904
		c-0.924,0.292-1.764,0.466-2.512,0.526c0.289,0.457,0.635,0.765,1.04,0.905c0.401,0.146,0.791,0.292,1.168,0.438
		c0.373,0.14,0.692,0.358,0.948,0.645c0.262,0.292,0.39,0.777,0.39,1.474H82.21c0,0.115,0.085,0.271,0.261,0.474
		c0.172,0.204,0.201,0.331,0.086,0.39c-0.062,0.061-0.262,0.141-0.604,0.262c-0.349,0.111-0.578,0.172-0.693,0.172l-0.435,0.431
		c0.06-0.397,0-0.646-0.172-0.737c-0.17-0.082-0.377-0.127-0.604-0.127h-0.521c-0.062,0.062-0.188,0.143-0.389,0.264
		c-0.205,0.111-0.359,0.172-0.477,0.172c-0.057,0-0.188-0.075-0.389-0.215c-0.205-0.146-0.361-0.221-0.476-0.221
		c-0.062,0-0.188,0.075-0.392,0.221c-0.204,0.14-0.362,0.215-0.479,0.215c-0.229,0.051-0.375,0.082-0.432,0.082
		c-0.578,0-1.081-0.172-1.516-0.518c-0.432-0.344-0.81-0.763-1.125-1.25c-0.315-0.496-0.59-1.012-0.818-1.56
		c-0.234-0.548-0.377-1.056-0.434-1.513H44.054l-0.432,0.425c0.348,0,0.864-0.005,1.558-0.036c0.694-0.029,1.369,0.018,2.031,0.129
		c0.663,0.111,1.257,0.313,1.777,0.605c0.517,0.285,0.778,0.75,0.778,1.386c0,0.286-0.273,0.519-0.821,0.692
		c-0.55,0.17-1.229,0.312-2.031,0.434c-0.81,0.111-1.661,0.185-2.555,0.211c-0.895,0.025-1.661,0.041-2.294,0.041h-1.21
		c-0.983,0-2.066-0.297-3.245-0.905c-1.184-0.604-1.92-1.454-2.206-2.557c-0.173,0.12-0.505,0.325-0.997,0.61
		c-0.489,0.291-1.01,0.588-1.558,0.903c-0.548,0.325-1.067,0.621-1.558,0.913c-0.489,0.286-0.851,0.488-1.079,0.607l-0.436,0.427
		c0.116,0.122,0.336,0.219,0.651,0.307c0.317,0.084,0.533,0.13,0.651,0.13c0.112,0,0.413,0.061,0.906,0.174
		c0.49,0.117,0.763,0.199,0.82,0.26c0.231,0.113,0.375,0.256,0.433,0.431c0.058,0.179,0.104,0.365,0.134,0.569
		c0.024,0.199,0.066,0.395,0.128,0.599c0.055,0.2,0.258,0.39,0.602,0.562c-0.055,0.121-0.185,0.218-0.389,0.308
		c-0.201,0.084-0.359,0.129-0.475,0.129c-0.058,0-0.188-0.056-0.39-0.174c-0.2-0.111-0.358-0.204-0.475-0.263H31.94h-0.432
		l0.432,0.871c-0.061,0-0.188,0.013-0.389,0.043c-0.207,0.029-0.362,0.039-0.475,0.039c-0.118,0-0.277-0.01-0.478-0.039
		c-0.204-0.03-0.335-0.043-0.39-0.043c-0.058,0-0.191-0.076-0.393-0.221c-0.2-0.142-0.358-0.215-0.475-0.215
		C29.288,86.035,29.127,86.175,28.872,86.471z"/>
</g>
</svg>
